<?xml version="1.0" encoding="UTF-8" standalone="no"?>
<!-- Created with Inkscape (http://www.inkscape.org/) -->

<svg
   xmlns:dc="http://purl.org/dc/elements/1.1/"
   xmlns:cc="http://creativecommons.org/ns#"
   xmlns:rdf="http://www.w3.org/1999/02/22-rdf-syntax-ns#"
   xmlns:svg="http://www.w3.org/2000/svg"
   xmlns="http://www.w3.org/2000/svg"
   xmlns:sodipodi="http://sodipodi.sourceforge.net/DTD/sodipodi-0.dtd"
   xmlns:inkscape="http://www.inkscape.org/namespaces/inkscape"
   version="1.1"
   id="svg901"
   width="89"
   height="89"
   viewBox="0 0 89.000001 89.000001"
   sodipodi:docname="association-loi-1901.svg"
   inkscape:version="0.92.5 (2060ec1f9f, 2020-04-08)">
  <metadata
     id="metadata907">
    <rdf:RDF>
      <cc:Work
         rdf:about="">
        <dc:format>image/svg+xml</dc:format>
        <dc:type
           rdf:resource="http://purl.org/dc/dcmitype/StillImage" />
        <dc:title />
      </cc:Work>
    </rdf:RDF>
  </metadata>
  <defs
     id="defs905">
    <path
       style="color:#000000;font-style:normal;font-variant:normal;font-weight:normal;font-stretch:normal;font-size:medium;line-height:normal;font-family:sans-serif;font-variant-ligatures:normal;font-variant-position:normal;font-variant-caps:normal;font-variant-numeric:normal;font-variant-alternates:normal;font-feature-settings:normal;text-indent:0;text-align:start;text-decoration:none;text-decoration-line:none;text-decoration-style:solid;text-decoration-color:#000000;letter-spacing:normal;word-spacing:normal;text-transform:none;writing-mode:lr-tb;direction:ltr;text-orientation:mixed;dominant-baseline:auto;baseline-shift:baseline;text-anchor:start;white-space:normal;shape-padding:0;clip-rule:nonzero;display:inline;overflow:visible;visibility:visible;opacity:1;isolation:auto;mix-blend-mode:normal;color-interpolation:sRGB;color-interpolation-filters:linearRGB;solid-color:#000000;solid-opacity:1;vector-effect:none;fill:#2f98d3;fill-opacity:0.5426254;fill-rule:evenodd;stroke:none;stroke-width:5.16641045;stroke-linecap:butt;stroke-linejoin:miter;stroke-miterlimit:4;stroke-dasharray:none;stroke-dashoffset:0;stroke-opacity:1;paint-order:markers fill stroke;color-rendering:auto;image-rendering:auto;shape-rendering:auto;text-rendering:auto;enable-background:accumulate"
       d="M 14.408203,0.832032 C 7.008974,0.836332 0.9854338,6.948877 0.9882808,14.382813 c 0.00285,7.433937 6.0304572,13.54051 13.4296882,13.539063 7.39923,-0.0014 13.423828,-6.110985 13.423828,-13.544922 h -5.166016 c 0,4.672004 -3.682489,8.37801 -8.259765,8.378906 -4.577277,8.96e-4 -8.25993,-3.702996 -8.26172,-8.375 -0.0018,-4.672004 3.678584,-8.380125 8.25586,-8.382812 4.577276,-0.0027 8.262047,3.701044 8.265625,8.373046 l 5.166016,-0.0039 C 27.836103,6.933254 21.807432,0.82769 14.408203,0.832032 Z"
       id="path911-0-0"
       inkscape:connector-curvature="0" />
  </defs>
  <sodipodi:namedview
     pagecolor="#ffffff"
     bordercolor="#666666"
     borderopacity="1"
     objecttolerance="10"
     gridtolerance="10"
     guidetolerance="10"
     inkscape:pageopacity="0"
     inkscape:pageshadow="2"
     inkscape:window-width="3840"
     inkscape:window-height="1849"
     id="namedview903"
     showgrid="false"
     inkscape:zoom="11.313708"
     inkscape:cx="20.960306"
     inkscape:cy="29.697741"
     inkscape:window-x="0"
     inkscape:window-y="79"
     inkscape:window-maximized="1"
     inkscape:current-layer="g1129" />
  <g
     id="g1120"
     transform="translate(0,60.52)">
    <g
       id="g1129">
      <path
         style="opacity:1;fill:#e4f2f9;fill-opacity:1;fill-rule:evenodd;stroke:#2f98d3;stroke-width:5.19999981;stroke-miterlimit:4;stroke-dasharray:none;stroke-opacity:0.5426254;paint-order:markers fill stroke"
         d="M 76.986252,-17.437748 A 34.338875,32.305943 0 0 1 42.653969,14.868194 34.338875,32.305943 0 0 1 8.3085047,-17.425344 34.338875,32.305943 0 0 1 42.6276,-49.743685 34.338875,32.305943 0 0 1 76.986242,-17.462556"
         id="path1202" />
      <g
         id="g1200"
         transform="matrix(3.2110994,0,0,3.2303692,-1.1788628,-62.206695)">
        <g
           transform="rotate(-85.810963,38.324673,46.183737)"
           id="g1151">
          <path
             sodipodi:nodetypes="cccccsccccc"
             style="color:#000000;font-style:normal;font-variant:normal;font-weight:normal;font-stretch:normal;font-size:medium;line-height:normal;font-family:sans-serif;font-variant-ligatures:normal;font-variant-position:normal;font-variant-caps:normal;font-variant-numeric:normal;font-variant-alternates:normal;font-feature-settings:normal;text-indent:0;text-align:start;text-decoration:none;text-decoration-line:none;text-decoration-style:solid;text-decoration-color:#000000;letter-spacing:normal;word-spacing:normal;text-transform:none;writing-mode:lr-tb;direction:ltr;text-orientation:mixed;dominant-baseline:auto;baseline-shift:baseline;text-anchor:start;white-space:normal;shape-padding:0;clip-rule:nonzero;display:inline;overflow:visible;visibility:visible;opacity:1;isolation:auto;mix-blend-mode:normal;color-interpolation:sRGB;color-interpolation-filters:linearRGB;solid-color:#000000;solid-opacity:1;vector-effect:none;fill:#2f98d3;fill-opacity:0.99327955;fill-rule:evenodd;stroke:none;stroke-width:5.16641045;stroke-linecap:butt;stroke-linejoin:miter;stroke-miterlimit:4;stroke-dasharray:none;stroke-dashoffset:0;stroke-opacity:1;paint-order:markers fill stroke;color-rendering:auto;image-rendering:auto;shape-rendering:auto;text-rendering:auto;enable-background:accumulate"
             d="m 68.365837,6.2873813 c 7.399229,0.0043 13.422769,6.1168457 13.419922,13.5507817 -0.0029,7.433937 -6.030457,13.54051 -13.429688,13.539063 -7.39923,-0.0014 -13.423828,-6.110985 -13.423828,-13.544922 h 5.166016 c 0,4.672004 3.682489,8.37801 8.259765,8.378906 4.577277,8.96e-4 8.25993,-3.702996 8.26172,-8.375 0.0018,-4.672004 -3.678584,-8.380125 -8.25586,-8.382812 -4.577276,-0.0027 -8.262047,3.706904 -8.265625,8.378906 h -5.166016 c 0.0057,-7.43394 6.034365,-13.5492647 13.433594,-13.5449227 z"
             id="path911-0-2"
             inkscape:connector-curvature="0" />
          <g
             aria-label="ASSOCIATION"
             transform="matrix(0.71737073,-0.05331009,0.05435648,0.73145155,18.078983,8.8868922)"
             style="font-style:normal;font-variant:normal;font-weight:normal;font-stretch:normal;font-size:4.61170244px;line-height:1.25;font-family:Arial;-inkscape-font-specification:'Arial, Normal';font-variant-ligatures:normal;font-variant-caps:normal;font-variant-numeric:normal;font-feature-settings:normal;text-align:start;letter-spacing:0px;word-spacing:0px;writing-mode:lr-tb;text-anchor:start;fill:#ffffff;fill-opacity:1;stroke:none;stroke-width:0.10808677"
             id="text943">
            <path
               d="M 68.366276,6.1976013 70.00834,3.0657562 70.475792,3.1203373 71.434909,6.555904 70.940617,6.4981891 70.674109,5.4604757 69.303065,5.3003885 68.827018,6.2513989 Z m 1.103302,-1.235973 1.111596,0.1297933 -0.236173,-0.9480213 Q 70.236751,3.7113462 70.191784,3.43631 70.092336,3.7443601 69.941968,4.0419305 Z"
               style="stroke-width:0.10808677"
               id="path827" />
            <path
               d="m 71.999111,5.6325245 0.399548,0.1070981 q -0.05722,0.2427708 -0.01245,0.4292066 0.04765,0.1850901 0.225358,0.3552171 0.178478,0.168011 0.442975,0.2642909 0.234874,0.085496 0.44015,0.081139 0.205276,-0.00436 0.335935,-0.093388 0.133545,-0.090377 0.185921,-0.2342635 0.05315,-0.1460026 0.0078,-0.2847271 Q 73.979746,6.1162575 73.812034,5.9713362 73.704907,5.8772246 73.314451,5.6200693 72.924764,5.3607981 72.78649,5.2074216 72.606676,5.0101676 72.559034,4.7987208 q -0.04475,-0.2127925 0.03304,-0.4265065 0.0855,-0.2348737 0.292746,-0.3894827 0.20802,-0.156725 0.502565,-0.1693251 0.294546,-0.0126 0.607711,0.1013952 0.344904,0.125549 0.566463,0.3332055 0.224445,0.2063108 0.287652,0.4737468 0.06321,0.2674359 -0.02558,0.5442485 L 74.419279,5.1523618 Q 74.494603,4.846687 74.3652,4.6294417 74.237912,4.4129665 73.880312,4.2827962 73.507899,4.1472341 73.286439,4.2223835 q -0.218573,0.073804 -0.288665,0.2663578 -0.06085,0.1671624 0.02048,0.3189809 0.07921,0.1510484 0.536991,0.4470877 0.460664,0.2946935 0.616061,0.4471137 0.225401,0.2234334 0.284384,0.4629721 0.05975,0.2374228 -0.03113,0.4871084 -0.09012,0.2475697 -0.311994,0.4160256 -0.221105,0.1663399 -0.532392,0.1920166 -0.308402,0.024331 -0.64061,-0.096596 -0.42108,-0.1532775 -0.662064,-0.3799866 -0.238867,-0.2259388 -0.31245,-0.5307009 -0.0707,-0.3061078 0.03406,-0.6202378 z"
               style="stroke-width:0.10808677"
               id="path829" />
            <path
               d="m 75.097535,6.8439487 0.364554,0.195472 q -0.111123,0.223301 -0.110097,0.4150327 0.0041,0.1910804 0.138326,0.3972798 0.135415,0.204315 0.370953,0.3584276 0.209158,0.136852 0.410009,0.1794666 0.200851,0.042615 0.348383,-0.014242 0.150649,-0.057508 0.234486,-0.1856403 0.08507,-0.1300168 0.07258,-0.2754323 Q 76.915464,7.7670134 76.78526,7.587636 76.702443,7.4715559 76.380993,7.1320634 76.060776,6.7906867 75.961162,6.6097968 75.83112,6.3767056 75.833001,6.1599663 q 0.005,-0.2173907 0.129522,-0.4077052 0.136852,-0.2091576 0.373921,-0.3123778 0.238303,-0.1051046 0.527948,-0.050139 0.289646,0.054966 0.568522,0.2374351 0.307142,0.2009628 0.475451,0.4537105 0.171427,0.2520963 0.17192,0.5268995 4.92e-4,0.2748031 -0.149131,0.5240426 L 77.563414,6.928893 Q 77.706522,6.6484815 77.630124,6.4074337 77.55561,6.1676188 77.237163,5.9592586 76.905526,5.7422681 76.672759,5.7648828 q -0.22965,0.021963 -0.341844,0.1934347 -0.0974,0.1488599 -0.05287,0.3152347 0.04264,0.1651418 0.420762,0.5578587 0.381236,0.3920654 0.497738,0.5759328 0.16845,0.2689851 0.171198,0.5156635 0.004,0.2447942 -0.141501,0.4671418 -0.144249,0.2204634 -0.398719,0.3338264 -0.253237,0.1114788 -0.562167,0.065423 Q 75.959541,8.7426909 75.663705,8.5491255 75.288729,8.3037783 75.105856,8.0280471 74.924868,7.7535489 74.922793,7.4400365 q 0.001,-0.3141638 0.174742,-0.5960878 z"
               style="stroke-width:0.10808677"
               id="path831" />
            <path
               d="m 78.281166,8.3620877 q 0.603383,-0.5580908 1.243609,-0.5490598 0.641879,0.0075 1.115874,0.5199638 0.310391,0.3355798 0.399269,0.7533502 0.08888,0.4177703 -0.06879,0.8243328 -0.154491,0.4066863 -0.518174,0.7430703 -0.368642,0.34097 -0.797199,0.461298 -0.428558,0.120327 -0.831278,-0.01329 -0.401067,-0.135151 -0.693109,-0.450893 -0.316506,-0.342193 -0.400425,-0.7645502 -0.08392,-0.4223573 0.07363,-0.8257377 0.157549,-0.4033804 0.476598,-0.6984804 z m 0.300844,0.3352076 q -0.438072,0.4051892 -0.473877,0.8738692 -0.03262,0.4688045 0.296116,0.8242215 0.334855,0.362029 0.805024,0.359648 0.471698,-7.27e-4 0.939526,-0.433439 0.295905,-0.273694 0.422498,-0.5778921 0.129775,-0.3040743 0.07156,-0.6091055 Q 80.587817,8.8296903 80.36611,8.5899904 80.051133,8.2494512 79.588569,8.2202591 79.129187,8.1911911 78.58201,8.6972953 Z"
               style="stroke-width:0.10808677"
               id="path833" />
            <path
               d="m 81.686222,13.787934 0.109621,0.437032 q -0.53908,0.13379 -0.958499,-0.04726 -0.41637,-0.180135 -0.660493,-0.634353 -0.252651,-0.470085 -0.221076,-0.867963 0.03462,-0.396961 0.31445,-0.746758 0.280892,-0.347813 0.697423,-0.571682 0.454217,-0.244122 0.884154,-0.252786 0.432987,-0.0077 0.779166,0.217783 0.349228,0.226446 0.55604,0.611242 0.234528,0.436366 0.172284,0.853284 -0.06224,0.416919 -0.401994,0.75035 l -0.292871,-0.330873 q 0.26299,-0.271724 0.304378,-0.541942 0.04139,-0.270219 -0.115319,-0.561791 -0.180161,-0.335208 -0.462351,-0.474976 -0.281125,-0.137784 -0.6019,-0.08298 -0.318791,0.05374 -0.606396,0.208317 -0.370911,0.199349 -0.591032,0.455702 -0.217072,0.257271 -0.231338,0.558928 -0.01427,0.301658 0.128584,0.567444 0.173764,0.323308 0.480674,0.447233 0.306909,0.123926 0.716495,0.006 z"
               style="stroke-width:0.10808677"
               id="path835" />
            <path
               d="m 81.019209,15.328664 3.13026,-1.048363 0.138733,0.414237 -3.13026,1.048363 z"
               style="stroke-width:0.10808677"
               id="path837" />
            <path
               d="m 81.341494,16.119476 3.47112,0.675389 0.08171,0.463481 -3.016451,1.903693 -0.0864,-0.490092 0.917768,-0.552791 -0.23965,-1.359396 -1.047561,-0.183456 z m 1.500372,0.702701 0.1943,1.102153 0.840535,-0.498019 q 0.382892,-0.227558 0.633496,-0.349479 -0.32363,-0.007 -0.651816,-0.06573 z"
               style="stroke-width:0.10808677"
               id="path839" />
            <path
               d="m 81.786127,20.023068 2.910319,0.08592 0.0321,-1.08715 0.389393,0.0115 -0.07721,2.615461 -0.389393,-0.0115 0.03223,-1.091651 -2.910319,-0.08592 z"
               style="stroke-width:0.10808677"
               id="path841" />
            <path
               d="m 81.60373,22.064657 3.247631,0.59202 -0.07834,0.429769 -3.247631,-0.59202 z"
               style="stroke-width:0.10808677"
               id="path843" />
            <path
               d="m 82.974889,23.711871 q 0.769073,0.289935 1.047434,0.866552 0.280469,0.57741 0.03422,1.230596 -0.161252,0.427731 -0.495113,0.694129 -0.333862,0.266398 -0.768008,0.307281 -0.432833,0.04378 -0.896384,-0.13097 -0.469872,-0.177138 -0.769222,-0.506577 -0.29935,-0.329438 -0.360025,-0.749387 -0.05857,-0.419154 0.09315,-0.8216 0.164429,-0.43616 0.504612,-0.700175 0.340183,-0.264014 0.771427,-0.303586 0.431244,-0.03957 0.837905,0.113737 z m -0.16519,0.419027 q -0.558368,-0.2105 -0.993543,-0.03283 -0.433863,0.180568 -0.604646,0.633583 -0.173961,0.461444 0.03852,0.880867 0.211689,0.42153 0.807984,0.646329 0.377162,0.142187 0.705854,0.119304 0.330005,-0.01998 0.576758,-0.208519 0.248065,-0.185636 0.363245,-0.491159 0.163634,-0.434052 -0.01721,-0.860799 -0.179531,-0.423845 -0.876965,-0.686773 z"
               style="stroke-width:0.10808677"
               id="path845" />
            <path
               d="m 80.056973,26.58788 2.696574,1.904227 -0.258486,0.366042 -3.117334,-0.07872 2.11716,1.495064 -0.2416,0.342131 -2.696575,-1.904227 0.258487,-0.366043 3.119173,0.08002 -2.119,-1.496364 z"
               style="stroke-width:0.10808677"
               id="path847" />
          </g>
          <g
             aria-label="à but non lucratif"
             transform="matrix(0.38117247,-0.75146481,0.78414047,0.39774683,51.756354,25.426251)"
             inkscape:transform-center-x="1.1680151"
             inkscape:transform-center-y="-3.8191538"
             style="font-style:normal;font-variant:normal;font-weight:normal;font-stretch:normal;font-size:3.73311377px;line-height:1.25;font-family:Arial;-inkscape-font-specification:'Arial, Normal';font-variant-ligatures:normal;font-variant-caps:normal;font-variant-numeric:normal;font-feature-settings:normal;text-align:start;letter-spacing:0px;word-spacing:0px;writing-mode:lr-tb;text-anchor:start;fill:#ffffff;fill-opacity:1;stroke:none;stroke-width:0.08749484"
             id="text943-6-2">
            <path
               d="m 12.920101,1.1478639 q 0.169579,-0.1687467 0.333579,-0.24563327 0.162184,-0.0767437 0.354807,-0.0918851 0.318011,-0.0249976 0.50097,0.11603744 0.183101,0.14285227 0.2021,0.38454037 0.01114,0.1417419 -0.04332,0.2630425 -0.05613,0.1232606 -0.154144,0.2022736 -0.09983,0.079156 -0.227809,0.1257847 -0.09431,0.033012 -0.286896,0.071919 -0.392436,0.078387 -0.574466,0.1585194 0.0035,0.067379 0.0049,0.085551 0.01571,0.1998924 0.114818,0.2743816 0.1341,0.1009932 0.38124,0.081567 0.230785,-0.018141 0.335206,-0.1086287 0.102748,-0.088528 0.139305,-0.2980141 l 0.323256,0.018472 q -0.02747,0.2087723 -0.117561,0.3420158 -0.08995,0.1350606 -0.273651,0.2171529 -0.183562,0.08391 -0.432519,0.103479 -0.247139,0.019427 -0.406173,-0.026582 Q 12.934708,2.7758489 12.855021,2.6925196 12.775476,2.6110076 12.73583,2.47882 12.712905,2.3965142 12.695763,2.1784497 L 12.661481,1.7423208 Q 12.625627,1.2862026 12.596067,1.1660212 12.564833,1.0477999 12.494335,0.9418071 l 0.341634,-0.0268546 q 0.05888,0.0977638 0.08413,0.23291137 z m 0.08468,0.7283733 q 0.172373,-0.086687 0.524545,-0.1655658 0.199424,-0.044931 0.280159,-0.087846 0.08073,-0.042915 0.120593,-0.1173569 0.04,-0.072625 0.03329,-0.1580334 -0.01028,-0.1308387 -0.115271,-0.210351 -0.106802,-0.079369 -0.297609,-0.064371 -0.188989,0.014856 -0.329754,0.1082002 -0.140623,0.095162 -0.198392,0.2441489 -0.04399,0.1149919 -0.02699,0.3312391 z m 0.272506,1.1871731 0.263494,-0.020712 0.459771,0.4758203 -0.437947,0.034425 z"
               style="stroke-width:0.08749484"
               id="path850" />
            <path
               d="m 10.789897,1.3271249 0.289507,-0.094078 0.82586,2.5414198 L 11.59322,3.8758682 11.298592,2.9692088 Q 11.181523,3.281331 10.87468,3.3810426 10.70479,3.4362501 10.531435,3.415918 10.35691,3.3978827 10.21927,3.3046125 10.080458,3.2136393 9.9680865,3.0565752 9.8557146,2.8995112 9.7909302,2.7001501 9.6371377,2.2268844 9.7872322,1.8925306 9.9373267,1.5581768 10.264972,1.4517051 10.590884,1.3457967 10.864821,1.5576902 Z m 0.307109,0.9332698 Q 10.989407,1.929282 10.851377,1.811222 10.625719,1.6181393 10.374351,1.6998239 q -0.204562,0.066474 -0.296189,0.2917465 -0.091063,0.2270056 0.0233,0.5789211 0.117175,0.3605835 0.316833,0.4854499 0.197923,0.1254298 0.400752,0.059519 0.204561,-0.066474 0.295625,-0.29348 0.09163,-0.225272 -0.01766,-0.5615854 z"
               style="stroke-width:0.08749484"
               id="path852" />
            <path
               d="M 7.9833038,2.4880426 8.1122303,2.741494 q 0.0527,-0.3949239 0.3987586,-0.5709581 0.1527207,-0.077686 0.3156974,-0.086967 0.1613521,-0.00845 0.270968,0.046221 0.1088177,0.057126 0.2001023,0.1722534 0.061674,0.077017 0.1567155,0.2638566 L 9.9982772,3.6349454 9.7058334,3.7837067 9.2190534,2.8267653 Q 9.1025237,2.5976843 9.044156,2.5271655 8.9578582,2.4258623 8.8346158,2.4047049 8.7121999,2.3851722 8.5806002,2.4521148 8.4490004,2.5190574 8.3675321,2.6443477 q -0.080642,0.126915 -0.06908,0.2662349 0.010764,0.1417711 0.1231612,0.3627287 L 8.8918645,4.197759 8.5994206,4.3465203 7.721729,2.6211013 Z"
               style="stroke-width:0.08749484"
               id="path854" />
            <path
               d="M 6.8575472,3.5468151 6.657659,3.3316631 q 0.099236,-0.1009673 0.1903239,-0.1615018 0.1487773,-0.098873 0.2620328,-0.1062921 0.1132556,-0.00742 0.1971,0.046292 0.084853,0.055229 0.2482967,0.3011669 L 8.1718562,4.3389089 8.3722501,4.2057328 8.5134974,4.4182718 8.3131035,4.5514479 8.5784467,4.9507175 8.4156626,5.295271 8.0413572,4.7320427 7.7665747,4.9146553 7.6253273,4.7021163 7.9001099,4.5195037 7.2735771,3.5767414 Q 7.195891,3.459845 7.1600318,3.4355262 q -0.037377,-0.02331 -0.082374,-0.021859 -0.046515,0.00246 -0.1072403,0.042817 -0.045544,0.030267 -0.1128703,0.090331 z"
               style="stroke-width:0.08749484"
               id="path856" />
            <path
               d="M 5.6189698,4.1341344 6.9767405,5.513943 6.7662613,5.7210606 6.5732072,5.5248731 Q 6.6449325,5.9018276 6.3577972,6.1843769 6.2330687,6.3071132 6.0843807,6.3639196 5.935672,6.4233037 5.8121056,6.4016856 5.6885392,6.3800674 5.5693063,6.3004809 5.4923886,6.2483032 5.3325757,6.0858963 L 4.4977129,5.2374829 4.7315788,5.0073523 5.557492,5.8466709 q 0.1406354,0.142918 0.236959,0.1862292 0.097602,0.044611 0.2086739,0.017147 Q 6.114176,6.0251622 6.2077223,5.93311 6.3571366,5.7860821 6.3729433,5.5838422 6.3874507,5.3828808 6.126636,5.1178328 L 5.3851039,4.364265 Z"
               style="stroke-width:0.08749484"
               id="path858" />
            <path
               d="M 5.0131166,6.0994347 Q 5.4438922,6.4212804 5.4723242,6.8156847 5.4951671,7.1444781 5.2802396,7.4321486 5.0413101,7.7519447 4.6793839,7.7978159 4.3189179,7.8447782 3.9494731,7.5687546 3.6501206,7.3450991 3.5454525,7.125825 3.4411537,6.9091021 3.4749753,6.6658767 3.5077059,6.4241116 3.6593552,6.2211359 3.9026488,5.8954988 4.2620237,5.8499968 4.6203077,5.805955 5.0131166,6.0994347 Z M 4.8112812,6.3695821 Q 4.5133889,6.1470176 4.2673436,6.1656981 4.0227585,6.1854697 3.8754732,6.3826043 3.7292788,6.5782786 3.7811258,6.8195237 3.8329727,7.0607687 4.1381662,7.2887882 4.4258367,7.5037157 4.6715128,7.4824838 4.9175581,7.4638033 5.0626614,7.2695892 5.2099468,7.0724546 5.1595601,6.8323006 5.1091734,6.5921465 4.8112812,6.3695821 Z"
               style="stroke-width:0.08749484"
               id="path860" />
            <path
               d="M 2.951209,7.3045142 4.6596691,8.2147763 4.5208156,8.4753889 4.2778989,8.3459636 Q 4.4591417,8.6841799 4.269718,9.039707 4.1874345,9.194144 4.0625596,9.2928424 3.9384364,9.3940065 3.8140633,9.4103566 3.6896901,9.4267066 3.5521048,9.3864478 3.4630976,9.359679 3.2620077,9.2525389 L 2.2115139,8.6928391 2.3657956,8.4032696 3.4050284,8.9569695 Q 3.5819875,9.0512528 3.6868579,9.0637542 3.793337,9.0771127 3.8911006,9.0176697 3.9896157,8.9606926 4.0513284,8.8448648 4.1498973,8.659862 4.1044589,8.4621598 4.0581634,8.2660663 3.7299846,8.0912137 l -0.9330573,-0.49713 z"
               style="stroke-width:0.08749484"
               id="path862" />
            <path
               d="m 1.6684366,10.128055 2.5482441,0.804557 -0.098786,0.312881 -2.5482441,-0.804557 z"
               style="stroke-width:0.08749484"
               id="path864" />
            <path
               d="m 1.1595511,12.169398 0.2787923,0.05599 q -0.277181,-0.286204 -0.2007374,-0.666863 0.033736,-0.16799 0.1275013,-0.301614 0.093407,-0.131838 0.2042674,-0.183943 0.1122888,-0.04996 0.2592143,-0.0502 0.098666,-6.37e-4 0.3041856,0.04063 l 1.1759313,0.23615 -0.0646,0.321683 -1.0526193,-0.211386 q -0.2519853,-0.0506 -0.3435024,-0.04853 -0.1329873,0.0049 -0.2259986,0.08848 -0.091224,0.08394 -0.1202943,0.228694 -0.02907,0.144758 0.018721,0.286358 0.049578,0.14196 0.1660566,0.219268 0.1179066,0.07945 0.3609562,0.128263 l 1.0168768,0.204208 -0.0646,0.321684 -1.8979317,-0.381142 z"
               style="stroke-width:0.08749484"
               id="path866" />
            <path
               d="m 1.6849573,14.2689 -0.058887,0.319976 q -0.330321,-0.07039 -0.50809,-0.298818 -0.17604488,-0.226517 -0.15931302,-0.543244 0.0209629,-0.396819 0.29223072,-0.625261 0.2729919,-0.226525 0.7571841,-0.200946 0.3130866,0.01654 0.5424205,0.1327 0.2293339,0.11616 0.3346767,0.333466 0.1070669,0.219222 0.093893,0.468599 -0.016636,0.314907 -0.1873971,0.506675 -0.1689413,0.191863 -0.4649859,0.23281 l -0.032319,-0.321144 q 0.197173,-0.03522 0.3016219,-0.146522 0.1043528,-0.109485 0.1130072,-0.273309 0.013078,-0.247557 -0.1571352,-0.411704 -0.1683927,-0.16405 -0.55247,-0.18434 -0.389538,-0.02058 -0.5739895,0.119356 -0.1844514,0.139935 -0.1971446,0.380211 -0.010193,0.192949 0.1012973,0.328438 0.1114903,0.13549 0.3553999,0.183057 z"
               style="stroke-width:0.08749484"
               id="path868" />
            <path
               d="m 0.99052309,14.832171 1.93223141,-0.117877 0.017981,0.294747 -0.2929277,0.01787 q 0.212477,0.100262 0.2837481,0.190876 0.071382,0.09243 0.078375,0.207058 0.010101,0.165568 -0.084993,0.343032 l -0.310726,-0.09427 q 0.063632,-0.124411 0.056306,-0.244494 -0.00655,-0.107346 -0.077265,-0.188863 -0.068897,-0.08163 -0.1857405,-0.111024 -0.1779949,-0.04393 -0.3854096,-0.03127 l -1.0116013,0.06171 z"
               style="stroke-width:0.08749484"
               id="path870" />
            <path
               d="M 1.536194,17.276628 Q 1.3506144,17.125655 1.2569739,16.97061 q -0.093308,-0.153254 -0.128541,-0.343232 -0.058167,-0.313643 0.062929,-0.510367 0.1228892,-0.197057 0.3612582,-0.241264 0.1397954,-0.02593 0.2661328,0.01553 0.128462,0.04292 0.2173056,0.132111 0.089176,0.09099 0.1489528,0.213381 0.042708,0.09034 0.1015723,0.277786 0.1190585,0.382068 0.2178151,0.554704 0.066646,-0.01051 0.084568,-0.01383 0.1971473,-0.03656 0.2608468,-0.142925 0.086393,-0.14394 0.041188,-0.387686 -0.042213,-0.227616 -0.1431396,-0.321985 -0.098802,-0.09291 -0.3109653,-0.107326 l -0.015486,-0.323413 q 0.2105014,0.0055 0.3524477,0.08109 0.1437386,0.07531 0.2446198,0.249403 0.1026735,0.173763 0.1482103,0.419301 0.045204,0.243746 0.016105,0.406723 -0.029099,0.162978 -0.1036239,0.250954 -0.072732,0.08765 -0.2000407,0.140917 -0.079452,0.03142 -0.2945218,0.07131 l -0.4301396,0.07977 q -0.4498544,0.08343 -0.5662788,0.125413 -0.1142998,0.04345 -0.2123258,0.124657 l -0.062488,-0.336943 q 0.091059,-0.0688 0.2228186,-0.108063 z M 2.2516921,17.116125 Q 2.1474284,16.95378 2.0320979,16.611806 1.9665272,16.418185 1.9153925,16.342389 q -0.051135,-0.0758 -0.129342,-0.107639 -0.076415,-0.03218 -0.1606508,-0.01655 -0.1290418,0.02393 -0.197121,0.136667 -0.067747,0.114528 -0.032846,0.302714 0.034568,0.186394 0.1421424,0.316609 0.1093667,0.129882 0.2635849,0.171729 0.1189663,0.0317 0.3322439,-0.0079 z"
               style="stroke-width:0.08749484"
               id="path872" />
            <path
               d="m 1.9979394,18.70551 -0.2630453,0.130587 q -0.068642,-0.123816 -0.1008277,-0.228342 -0.05257,-0.170725 -0.027532,-0.281427 0.025038,-0.110702 0.1003409,-0.175849 0.077045,-0.06568 0.3592638,-0.152586 l 1.0644174,-0.327757 -0.070809,-0.229956 0.2438927,-0.0751 0.070808,0.229956 0.4581699,-0.14108 0.2841663,0.2539 -0.6463156,0.199014 0.097093,0.315319 -0.2438927,0.0751 -0.097093,-0.315319 -1.0818382,0.333122 q -0.134141,0.04131 -0.1676391,0.06878 -0.032962,0.02922 -0.044344,0.07278 -0.010846,0.0453 0.010611,0.114983 0.016093,0.05226 0.054572,0.13387 z"
               style="stroke-width:0.08749484"
               id="path874" />
            <path
               d="m 3.973586,18.26873 0.3520894,-0.135663 0.1179683,0.306164 -0.3520895,0.135664 z m -2.1414523,0.825122 1.806372,-0.696012 0.1179682,0.306164 -1.8063719,0.696013 z"
               style="stroke-width:0.08749484"
               id="path876" />
            <path
               d="M 2.1753044,19.93221 3.6982433,19.221453 3.5756724,18.95882 3.8069212,18.850896 3.9294921,19.113529 4.116143,19.026418 q 0.1767402,-0.08248 0.2772794,-0.09119 0.1356675,-0.01102 0.2568015,0.0632 0.1235567,0.0751 0.2145213,0.270008 0.058587,0.125535 0.099777,0.291375 l -0.280143,0.07643 q -0.026652,-0.100209 -0.065196,-0.182797 -0.063213,-0.135446 -0.147235,-0.164626 -0.084022,-0.02918 -0.242593,0.04483 l -0.1618742,0.07555 0.1595734,0.341918 -0.2312488,0.107924 -0.1595734,-0.341918 -1.5229389,0.710757 z"
               style="stroke-width:0.08749484"
               id="path878" />
          </g>
        </g>
        <g
           aria-label="Loi 1901"
           transform="matrix(0.96014815,-0.23763236,0.2587129,0.97747565,0,0)"
           style="font-style:normal;font-variant:normal;font-weight:normal;font-stretch:normal;font-size:3.58442497px;line-height:1.25;font-family:Arial;-inkscape-font-specification:'Arial, Normal';font-variant-ligatures:normal;font-variant-caps:normal;font-variant-numeric:normal;font-feature-settings:normal;text-align:start;letter-spacing:0px;word-spacing:0px;writing-mode:lr-tb;text-anchor:start;fill:#000000;fill-opacity:1;stroke:none;stroke-width:0.08400997"
           id="text1142">
          <path
             d="M 3.9370376,18.566694 V 16.00089 h 0.3395402 v 2.263018 h 1.2636498 v 0.302786 z"
             style="fill:#2f98d3;fill-opacity:1;stroke-width:0.08400997"
             id="path881" />
          <path
             d="m 5.7870069,17.637334 q 0,-0.516311 0.2870341,-0.764841 0.2397784,-0.206524 0.5845693,-0.206524 0.3832954,0 0.6265743,0.25203 0.2432788,0.250279 0.2432788,0.693082 0,0.358793 -0.1085129,0.565317 -0.1067626,0.204774 -0.3132871,0.318538 -0.2047743,0.113763 -0.4480531,0.113763 -0.3902963,0 -0.6318249,-0.250279 -0.2397785,-0.25028 -0.2397785,-0.721086 z m 0.3237884,0 q 0,0.357042 0.1557685,0.535564 0.1557685,0.176771 0.3920465,0.176771 0.2345278,0 0.3902963,-0.178522 0.1557684,-0.178521 0.1557684,-0.544314 0,-0.344791 -0.1575187,-0.521562 -0.1557684,-0.178521 -0.388546,-0.178521 -0.236278,0 -0.3920465,0.176771 -0.1557685,0.176771 -0.1557685,0.533813 z"
             style="fill:#2f98d3;fill-opacity:1;stroke-width:0.08400997"
             id="path883" />
          <path
             d="M 7.8995075,16.363183 V 16.00089 h 0.3150373 v 0.362293 z m 0,2.203511 v -1.85872 h 0.3150373 v 1.85872 z"
             style="fill:#2f98d3;fill-opacity:1;stroke-width:0.08400997"
             id="path885" />
          <path
             d="m 10.7891,18.566694 h -0.315037 v -2.007488 q -0.113764,0.108513 -0.299286,0.217026 -0.1837716,0.108513 -0.330789,0.162769 v -0.304536 q 0.264281,-0.124265 0.462055,-0.301036 0.197773,-0.17677 0.280033,-0.34304 H 10.7891 Z"
             style="fill:#2f98d3;fill-opacity:1;stroke-width:0.08400997"
             id="path887" />
          <path
             d="m 11.643201,17.973374 0.302786,-0.028 q 0.0385,0.213525 0.147018,0.309786 0.108513,0.09626 0.278283,0.09626 0.145267,0 0.25378,-0.06651 0.110263,-0.06651 0.180271,-0.176771 0.07001,-0.112013 0.117264,-0.301036 0.04726,-0.189022 0.04726,-0.385045 0,-0.021 -0.0018,-0.06301 -0.09451,0.150518 -0.25903,0.245029 -0.16277,0.09276 -0.353542,0.09276 -0.318538,0 -0.539064,-0.231027 -0.220526,-0.231028 -0.220526,-0.609072 0,-0.390297 0.229277,-0.628325 0.231027,-0.238028 0.577568,-0.238028 0.25028,0 0.456805,0.134766 0.208274,0.134766 0.315037,0.385045 0.108513,0.24853 0.108513,0.721086 0,0.491808 -0.106763,0.784093 -0.106763,0.290534 -0.318538,0.442802 -0.210025,0.152268 -0.493558,0.152268 -0.301036,0 -0.491808,-0.166269 -0.190773,-0.16802 -0.229278,-0.470806 z m 1.289903,-1.132384 q 0,-0.271283 -0.145267,-0.430551 -0.143517,-0.159269 -0.346541,-0.159269 -0.210025,0 -0.365793,0.17152 -0.155769,0.17152 -0.155769,0.444553 0,0.245029 0.147018,0.399047 0.148767,0.152268 0.365793,0.152268 0.218776,0 0.358792,-0.152268 0.141767,-0.154018 0.141767,-0.4253 z"
             style="fill:#2f98d3;fill-opacity:1;stroke-width:0.08400997"
             id="path889" />
          <path
             d="m 13.589432,17.301294 q 0,-0.455054 0.09276,-0.731587 0.09451,-0.278282 0.278283,-0.4288 0.185522,-0.150518 0.465555,-0.150518 0.206525,0 0.362293,0.08401 0.155769,0.08226 0.257281,0.239778 0.101512,0.155769 0.159269,0.381545 0.05776,0.224027 0.05776,0.605572 0,0.451554 -0.09276,0.729837 -0.09276,0.276533 -0.278283,0.428801 -0.183772,0.150517 -0.465556,0.150517 -0.371044,0 -0.582819,-0.266031 -0.25378,-0.320288 -0.25378,-1.043124 z m 0.323789,0 q 0,0.631825 0.147017,0.84185 0.148768,0.208275 0.365793,0.208275 0.217026,0 0.364044,-0.210025 0.148767,-0.210025 0.148767,-0.8401 0,-0.633575 -0.148767,-0.84185 -0.147018,-0.208274 -0.367544,-0.208274 -0.217026,0 -0.346541,0.183772 -0.162769,0.234527 -0.162769,0.866352 z"
             style="fill:#2f98d3;fill-opacity:1;stroke-width:0.08400997"
             id="path891" />
          <path
             d="m 16.769559,18.566694 h -0.315037 v -2.007488 q -0.113764,0.108513 -0.299286,0.217026 -0.183771,0.108513 -0.330789,0.162769 v -0.304536 q 0.264282,-0.124265 0.462055,-0.301036 0.197773,-0.17677 0.280033,-0.34304 h 0.203024 z"
             style="fill:#2f98d3;fill-opacity:1;stroke-width:0.08400997"
             id="path893" />
        </g>
      </g>
    </g>
  </g>
</svg>
