<?xml version="1.0" encoding="UTF-8" standalone="no"?>
<!-- Created with Inkscape (http://www.inkscape.org/) -->

<svg
   xmlns:dc="http://purl.org/dc/elements/1.1/"
   xmlns:cc="http://creativecommons.org/ns#"
   xmlns:rdf="http://www.w3.org/1999/02/22-rdf-syntax-ns#"
   xmlns:svg="http://www.w3.org/2000/svg"
   xmlns="http://www.w3.org/2000/svg"
   xmlns:sodipodi="http://sodipodi.sourceforge.net/DTD/sodipodi-0.dtd"
   xmlns:inkscape="http://www.inkscape.org/namespaces/inkscape"
   width="405"
   height="150"
   viewBox="0 0 405 150"
   version="1.1"
   id="SVGRoot"
   inkscape:version="0.92.5 (2060ec1f9f, 2020-04-08)"
   sodipodi:docname="handyopensource4.svg">
  <sodipodi:namedview
     id="base"
     pagecolor="#ffffff"
     bordercolor="#666666"
     borderopacity="1.0"
     inkscape:pageopacity="0.0"
     inkscape:pageshadow="2"
     inkscape:zoom="7.9195959"
     inkscape:cx="131.73901"
     inkscape:cy="71.700605"
     inkscape:document-units="px"
     inkscape:current-layer="text5960-2"
     showgrid="false"
     inkscape:window-width="3840"
     inkscape:window-height="1792"
     inkscape:window-x="0"
     inkscape:window-y="79"
     inkscape:window-maximized="1" />
  <defs
     id="defs3783">
    <filter
       style="color-interpolation-filters:sRGB"
       inkscape:label="Drop Shadow"
       id="filter5264">
      <feFlood
         flood-opacity="0.498039"
         flood-color="rgb(0,0,0)"
         result="flood"
         id="feFlood5254" />
      <feComposite
         in="SourceGraphic"
         in2="flood"
         operator="in"
         result="composite1"
         id="feComposite5256" />
      <feGaussianBlur
         in="composite1"
         stdDeviation="5"
         result="blur"
         id="feGaussianBlur5258" />
      <feOffset
         dx="6"
         dy="6"
         result="offset"
         id="feOffset5260" />
      <feComposite
         in="SourceGraphic"
         in2="offset"
         operator="over"
         result="composite2"
         id="feComposite5262" />
    </filter>
    <filter
       style="color-interpolation-filters:sRGB"
       inkscape:label="Fluorescence"
       id="filter5956"
       inkscape:menu="Color"
       inkscape:menu-tooltip="Oversaturate colors which can be fluorescent in real world">
      <feFlood
         flood-opacity="0.498039"
         flood-color="rgb(0,0,0)"
         result="flood"
         id="feFlood5946" />
      <feComposite
         in="flood"
         in2="SourceGraphic"
         operator="in"
         result="composite1"
         id="feComposite5948" />
      <feGaussianBlur
         in="composite1"
         stdDeviation="4"
         result="blur"
         id="feGaussianBlur5950" />
      <feOffset
         dx="4"
         dy="4"
         result="offset"
         id="feOffset5952" />
      <feComposite
         in="SourceGraphic"
         in2="offset"
         operator="over"
         result="fbSourceGraphic"
         id="feComposite5954" />
      <feColorMatrix
         result="fbSourceGraphicAlpha"
         in="fbSourceGraphic"
         values="0 0 0 -1 0 0 0 0 -1 0 0 0 0 -1 0 0 0 0 1 0"
         id="feColorMatrix6598" />
      <feColorMatrix
         id="feColorMatrix6600"
         type="hueRotate"
         values="0"
         in="fbSourceGraphic" />
      <feColorMatrix
         id="feColorMatrix6602"
         type="saturate"
         values="1" />
      <feColorMatrix
         id="feColorMatrix6604"
         type="matrix"
         values="2 -1 0 0 0 0 2 -1 0 0 -1 0 2 0 0 0 0 0 1 0 " />
    </filter>
    <filter
       style="color-interpolation-filters:sRGB"
       inkscape:label="Drop Shadow"
       id="filter6560">
      <feFlood
         flood-opacity="0.498039"
         flood-color="rgb(0,0,0)"
         result="flood"
         id="feFlood6550" />
      <feComposite
         in="flood"
         in2="SourceGraphic"
         operator="in"
         result="composite1"
         id="feComposite6552" />
      <feGaussianBlur
         in="composite1"
         stdDeviation="1"
         result="blur"
         id="feGaussianBlur6554" />
      <feOffset
         dx="1"
         dy="1"
         result="offset"
         id="feOffset6556" />
      <feComposite
         in="SourceGraphic"
         in2="offset"
         operator="over"
         result="composite2"
         id="feComposite6558" />
    </filter>
    <filter
       style="color-interpolation-filters:sRGB"
       inkscape:label="Drop Shadow"
       id="filter6560-0">
      <feFlood
         flood-opacity="0.498039"
         flood-color="rgb(0,0,0)"
         result="flood"
         id="feFlood6550-5" />
      <feComposite
         in="flood"
         in2="SourceGraphic"
         operator="in"
         result="composite1"
         id="feComposite6552-5" />
      <feGaussianBlur
         in="composite1"
         stdDeviation="1"
         result="blur"
         id="feGaussianBlur6554-2" />
      <feOffset
         dx="1"
         dy="1"
         result="offset"
         id="feOffset6556-9" />
      <feComposite
         in="SourceGraphic"
         in2="offset"
         operator="over"
         result="composite2"
         id="feComposite6558-0" />
    </filter>
  </defs>
  <metadata
     id="metadata3786">
    <rdf:RDF>
      <cc:Work
         rdf:about="">
        <dc:format>image/svg+xml</dc:format>
        <dc:type
           rdf:resource="http://purl.org/dc/dcmitype/StillImage" />
        <dc:title />
      </cc:Work>
    </rdf:RDF>
  </metadata>
  <g
     id="layer1"
     inkscape:groupmode="layer"
     inkscape:label="Layer 1"
     transform="translate(0,-200)">
    <rect
       style="opacity:1;fill:#688fbc;fill-opacity:1;stroke:#688fbc;filter:url(#filter5264);stroke-opacity:1"
       id="rect3988"
       width="872.77185"
       height="324.25897"
       x="13.131983"
       y="13.619203"
       ry="0"
       transform="matrix(0.45575179,0,0,0.43655156,-1.708607,199.77717)" />
    <g
       transform="matrix(0.30536137,0,0,0.29249689,106.01163,121.74075)"
       id="layer1-7"
       style="filter:url(#filter5956)">
      <path
         inkscape:connector-curvature="0"
         d="M 579.72717,678.34926 H 872.17443 V 385.902 H 579.72717 Z"
         id="path2898"
         style="fill:none;stroke:#0063a3;stroke-width:7.55273676;stroke-linecap:butt;stroke-linejoin:round;stroke-miterlimit:4;stroke-dasharray:none;stroke-opacity:1" />
      <path
         inkscape:connector-curvature="0"
         d="M 588.46972,669.60671 H 863.43188 V 394.6445 H 588.46972 Z"
         id="path2908"
         style="fill:#0063a3;fill-opacity:1;fill-rule:nonzero;stroke:none" />
      <path
         inkscape:connector-curvature="0"
         d="M 588.46972,669.60671 H 863.43188 V 394.6445 H 588.46972 Z"
         id="path2918"
         style="fill:none;stroke:#0063a3;stroke-width:7.04117441;stroke-linecap:butt;stroke-linejoin:round;stroke-miterlimit:4;stroke-dasharray:none;stroke-opacity:1" />
      <path
         inkscape:connector-curvature="0"
         d="m 692.85843,581.6955 22.07187,3.89707 -1.10354,9.69096 -21.61784,-10.34047 z"
         id="path2928"
         style="fill:#ffffff;fill-opacity:1;fill-rule:nonzero;stroke:none" />
      <path
         inkscape:connector-curvature="0"
         d="m 705.41753,646.98586 c 11.44405,7.1504 25.66434,11.54175 43.18395,11.47281 91.35708,0.36214 91.44905,-120.74028 91.44905,-120.74028 l -0.0287,-0.0288 0.0575,0.0804 -0.20693,-0.15514 c 7.11015,1.21281 8.55287,-8.34594 9.28286,-11.97281 0.73573,-3.62698 -0.41954,-13.8353 -0.48858,-18.767 0.29889,-6.58128 3.74769,-22.30753 3.73614,-28.64177 -0.006,-5.52373 2.06924,-18.53691 -12.84081,-14.40423 -0.16663,-2.86814 -0.20117,-16.43899 -0.20117,-16.43899 0,0 -0.18968,-9.74263 -0.81046,-19.76115 -0.43103,-6.84581 -2.50027,-21.73286 -7.61021,-37.25793 H 720.51725"
         id="path2940"
         style="fill:#ffffff;fill-opacity:1;fill-rule:nonzero;stroke:#ffffff;stroke-width:1.88531029;stroke-linecap:butt;stroke-linejoin:miter;stroke-miterlimit:4;stroke-dasharray:none;stroke-opacity:1" />
      <path
         inkscape:connector-curvature="0"
         d="m 583.54607,613.66128 c 24.21589,24.0607 81.76384,52.80593 118.29748,38.16029 1.78184,-0.71849 3.54645,-1.85657 5.13287,-3.31079 1.2243,-1.12084 2.33939,-2.43711 3.28205,-3.89133 2.36238,-3.65566 3.2763,-8.08154 2.63828,-12.89828 0,0 0.16669,-3.06363 -3.47748,-15.60554 -0.71848,-2.81072 1.54044,-4.43163 4.47187,-5.52373 6.66181,-2.48884 9.84615,-10.67384 -0.0632,-15.30665 0,0 -21.01431,-8.81152 -35.58523,-18.12887 0,0 27.1645,9.09893 44.36227,9.09893 2.13822,0 7.73667,0.74722 8.94948,-5.93758 0.50006,-3.51771 -2.67852,-9.86914 -2.67852,-14.9043 0,0 -0.84494,-2.65553 4.85122,-3.32803 0.83345,-0.0977 33.75165,-3.34528 10.00134,-41.14345 0,0 -11.80618,-18.75539 -12.95001,-59.36428 0,-10.32323 1.19556,-40.60315 -9.65647,-71.20495"
         id="path2942"
         style="fill:#0063a3;fill-opacity:1;fill-rule:nonzero;stroke:none" />
      <path
         inkscape:connector-curvature="0"
         d="m 583.54607,613.66128 c 24.2159,24.06073 81.76384,52.80591 118.29747,38.16034 1.78185,-0.71849 3.54651,-1.85666 5.13287,-3.31082 1.22431,-1.12088 2.3394,-2.43708 3.28211,-3.89133 2.36233,-3.65568 3.27625,-8.08158 2.63829,-12.89831 0,0 0.16663,-3.06365 -3.47754,-15.60552 -0.71849,-2.81071 1.54044,-4.4316 4.47186,-5.52372 6.66182,-2.48883 9.84615,-10.6739 -0.0632,-15.3067 0,0 -21.01431,-8.81147 -35.58523,-18.12882 0,0 27.16456,9.09888 44.36227,9.09888 2.13821,0 7.73667,0.74725 8.94947,-5.93752 0.50007,-3.51771 -2.67852,-9.8692 -2.67852,-14.90431 0,0 -0.84494,-2.65556 4.85123,-3.32809 0.83344,-0.0977 33.75165,-3.3452 10.00134,-41.14341 0,0 -11.80618,-18.75539 -12.95001,-59.36428 0,-10.32323 1.19562,-40.60321 -9.65641,-71.20495"
         id="path2954"
         style="fill:none;stroke:#ffffff;stroke-width:4.24769592;stroke-linecap:square;stroke-linejoin:round;stroke-miterlimit:4;stroke-dasharray:none;stroke-opacity:1" />
      <path
         inkscape:connector-curvature="0"
         d="m 767.84665,484.3221 c -3.20158,0.70124 -2.09798,-1.95429 0.0402,-4.9202 4.06952,-5.65019 21.7443,-19.6808 31.15936,1.15532 1.3565,3.00615 1.6209,4.55809 -0.42535,4.16723 -3.60393,-0.684 -14.45596,-3.98904 -30.77424,-0.40235"
         id="path2964"
         style="fill:#0063a3;fill-opacity:1;fill-rule:nonzero;stroke:none" />
      <path
         inkscape:connector-curvature="0"
         d="m 654.04748,482.67015 c -3.24181,0.44259 -1.93704,-2.11522 0.43109,-4.90295 4.5121,-5.30531 23.25025,-17.88171 30.96967,3.63841 1.1151,3.10387 1.25305,4.67879 -0.75297,4.12125 -3.54071,-0.9714 -14.09384,-5.12713 -30.64779,-2.85671"
         id="path2966"
         style="fill:#ffffff;fill-opacity:1;fill-rule:nonzero;stroke:none" />
      <path
         inkscape:connector-curvature="0"
         d="m 583.23569,615.60579 c 20.60621,23.12955 83.26404,52.72548 119.68852,37.82118 1.29322,-0.56904 3.66135,-1.86805 5.23628,-3.32801 1.2128,-1.13237 2.32215,-2.39112 3.25331,-3.85116"
         id="path2978"
         style="fill:none;stroke:#ffffff;stroke-width:5.66167927;stroke-linecap:butt;stroke-linejoin:round;stroke-miterlimit:4;stroke-dasharray:none;stroke-opacity:1" />
      <path
         inkscape:connector-curvature="0"
         d="m 718.55211,391.67864 c 0.1149,-0.29889 -0.845,-1.0921 -0.75878,-1.31052 0.56335,0 1.1209,-1.39099 1.1209,-1.39099 12.4327,36.57962 11.54752,76.37806 13.88686,96.24279 2.94298,22.5375 13.10526,44.02314 13.43289,44.70714 0.60922,6.37442 -25.76782,8.28272 -25.76782,8.28272 0,0 -23.3652,-81.79257 -23.3652,-86.47136 0,-4.21321 17.94493,-50.96086 21.45115,-60.05978"
         id="path2990"
         style="fill:#0063a3;fill-opacity:1;fill-rule:nonzero;stroke:none" />
      <path
         inkscape:connector-curvature="0"
         d="m 707.28795,590.01845 c -2.41411,-1.40248 -1.11509,-4.47186 1.66689,-3.77062 13.6685,3.8281 30.48685,6.23647 40.62039,6.23647 1.33921,0 20.83613,0.88518 39.86742,-6.34568 1.66689,-0.63227 2.60954,-0.50006 3.20152,0.46558 0.52886,1.16108 0.22997,2.04051 -0.91386,2.89694 -6.67905,5.09839 -20.70973,12.67412 -41.91941,12.67412 -17.92769,0 -36.5107,-8.892 -42.52295,-12.15681"
         id="path2994"
         style="fill:#0063a3;fill-opacity:1;fill-rule:nonzero;stroke:none" />
      <path
         inkscape:connector-curvature="0"
         d="M 581.18719,676.89505 H 870.71452 V 387.36772 H 581.18719 Z"
         id="path3004"
         style="fill:none;stroke:#ffffff;stroke-width:7.48951006;stroke-linecap:butt;stroke-linejoin:round;stroke-miterlimit:4;stroke-dasharray:none;stroke-opacity:1" />
    </g>
    <g
       aria-label="HandyOpenSource"
       transform="matrix(0.48946184,0,0,0.42774516,-2.05126,200.86025)"
       style="font-style:normal;font-weight:normal;font-size:40px;line-height:1.25;font-family:sans-serif;letter-spacing:0px;word-spacing:0px;fill:#000000;fill-opacity:1;stroke:none;filter:url(#filter6560)"
       id="text5960">
      <path
         d="m 71.432255,93.195028 h 6.72 v 51.744002 h -6.72 V 120.89636 H 54.408256 v 24.04267 h -6.72 V 93.195028 h 6.72 v 21.877332 h 17.023999 z"
         style="font-style:normal;font-variant:normal;font-weight:normal;font-stretch:normal;font-size:74.66666412px;font-family:'Ubuntu Condensed';-inkscape-font-specification:'Ubuntu Condensed, Normal';font-variant-ligatures:normal;font-variant-caps:normal;font-variant-numeric:normal;font-feature-settings:normal;text-align:start;writing-mode:lr-tb;text-anchor:start;fill:#ffffff"
         id="path938" />
      <path
         d="m 90.845463,106.56036 q 1.941333,-0.82133 4.106666,-1.26933 2.165333,-0.52267 4.704,-0.52267 5.226671,0 8.512001,3.28533 3.28533,3.21067 3.28533,10.08 v 25.984 q -2.688,0.74667 -5.52533,1.19467 -2.76267,0.448 -5.45067,0.448 -2.687998,0 -5.077331,-0.672 -2.314666,-0.672 -4.106666,-2.16533 -1.717334,-1.49334 -2.762667,-3.73334 -1.045333,-2.31466 -1.045333,-5.6 0,-3.06133 0.896,-5.30133 0.970666,-2.31467 2.613333,-3.808 1.642667,-1.568 3.882666,-2.31467 2.24,-0.82133 4.853334,-0.82133 2.464004,0 5.450664,0.59733 v -3.584 q 0,-4.33066 -1.71733,-6.048 -1.64267,-1.71733 -4.778668,-1.71733 -1.717333,0 -3.285333,0.37333 -1.493333,0.29867 -3.210666,1.04534 z m 3.061333,26.95467 q 0,3.43466 1.792,5.07733 1.792,1.64267 5.077334,1.64267 2.016,0 4.40533,-0.52267 v -12.46933 q -2.24,-0.59734 -4.40533,-0.59734 -1.418668,0 -2.688001,0.37334 -1.269333,0.29866 -2.24,1.12 -0.896,0.74666 -1.418667,2.09066 -0.522666,1.26934 -0.522666,3.28534 z"
         style="font-style:normal;font-variant:normal;font-weight:normal;font-stretch:normal;font-size:74.66666412px;font-family:'Ubuntu Condensed';-inkscape-font-specification:'Ubuntu Condensed, Normal';font-variant-ligatures:normal;font-variant-caps:normal;font-variant-numeric:normal;font-feature-settings:normal;text-align:start;writing-mode:lr-tb;text-anchor:start;fill:#ffffff"
         id="path940" />
      <path
         d="m 122.65332,106.85903 q 2.76267,-0.82134 5.97333,-1.344 3.21067,-0.59734 5.89867,-0.59734 2.912,0 5.30133,0.82134 2.38933,0.74666 4.032,2.61333 1.71733,1.86667 2.61333,5.07733 0.97067,3.136 0.97067,7.84 v 23.66934 h -6.42133 v -23.14667 q 0,-5.824 -1.49334,-8.512 -1.49333,-2.688 -5.59999,-2.688 -2.16534,0 -4.85334,0.74667 v 33.6 h -6.42133 z"
         style="font-style:normal;font-variant:normal;font-weight:normal;font-stretch:normal;font-size:74.66666412px;font-family:'Ubuntu Condensed';-inkscape-font-specification:'Ubuntu Condensed, Normal';font-variant-ligatures:normal;font-variant-caps:normal;font-variant-numeric:normal;font-feature-settings:normal;text-align:start;writing-mode:lr-tb;text-anchor:start;fill:#ffffff"
         id="path942" />
      <path
         d="m 175.5172,111.63769 q -2.16533,-1.19466 -4.62933,-1.19466 -1.86667,0 -3.28533,0.74666 -1.41867,0.74667 -2.464,2.464 -0.97067,1.71734 -1.49334,4.55467 -0.52266,2.83733 -0.52266,7.01867 0,8.064 2.09066,11.57333 2.16534,3.43467 6.496,3.43467 0.82134,0 1.792,-0.0747 0.97067,-0.14933 2.016,-0.448 z m 0,-23.519996 6.42134,-1.119999 v 56.895995 q -2.09067,0.896 -4.77867,1.41867 -2.688,0.59733 -5.45067,0.59733 -8.064,0 -11.72266,-5.152 -3.584,-5.152 -3.584,-15.53066 0,-4.704 0.74667,-8.43734 0.82133,-3.808 2.464,-6.42133 1.71733,-2.688 4.33066,-4.10667 2.61333,-1.49333 6.19733,-1.49333 1.71734,0 2.912,0.37333 1.26934,0.29867 2.464,0.896 z"
         style="font-style:normal;font-variant:normal;font-weight:normal;font-stretch:normal;font-size:74.66666412px;font-family:'Ubuntu Condensed';-inkscape-font-specification:'Ubuntu Condensed, Normal';font-variant-ligatures:normal;font-variant-caps:normal;font-variant-numeric:normal;font-feature-settings:normal;text-align:start;writing-mode:lr-tb;text-anchor:start;fill:#ffffff"
         id="path944" />
      <path
         d="m 202.54647,136.80036 q 2.16533,-7.46667 3.95733,-15.008 1.792,-7.54133 3.43467,-16.05333 h 6.34666 q -1.12,5.45066 -2.464,10.752 -1.26933,5.30133 -2.688,10.22933 -1.344,4.928 -2.76266,9.33333 -1.344,4.33067 -2.53867,7.91467 -1.41867,4.18133 -2.76267,7.01867 -1.26933,2.912 -2.83733,4.62933 -1.49333,1.792 -3.28533,2.53867 -1.792,0.82133 -4.256,0.82133 -1.344,0 -2.688,-0.37333 -1.344,-0.29867 -2.24,-0.672 l 1.19466,-5.22667 q 1.94134,0.82133 3.65867,0.82133 2.16533,0 3.50933,-1.568 1.344,-1.568 2.61334,-4.704 l 0.74666,-1.86666 q -1.41866,-3.88267 -2.912,-8.58667 -1.41866,-4.77867 -2.83733,-9.93067 -1.344,-5.152 -2.61333,-10.528 -1.26934,-5.45066 -2.31467,-10.60266 h 6.79467 q 0.59733,3.50933 1.41866,7.69066 0.82134,4.18134 1.71734,8.36267 0.97066,4.18133 1.94133,8.13867 0.97067,3.88266 1.86667,6.86933 z"
         style="font-style:normal;font-variant:normal;font-weight:normal;font-stretch:normal;font-size:74.66666412px;font-family:'Ubuntu Condensed';-inkscape-font-specification:'Ubuntu Condensed, Normal';font-variant-ligatures:normal;font-variant-caps:normal;font-variant-numeric:normal;font-feature-settings:normal;text-align:start;writing-mode:lr-tb;text-anchor:start;fill:#ffffff"
         id="path946" />
      <path
         d="m 258.24779,119.10436 q 0,6.048 -1.12,11.05067 -1.04533,4.928 -3.36,8.512 -2.24,3.50933 -5.74933,5.45066 -3.43467,1.94134 -8.13867,1.94134 -4.704,0 -8.21333,-1.94134 -3.43467,-1.94133 -5.74933,-5.45066 -2.24,-3.584 -3.36,-8.512 -1.12,-5.00267 -1.12,-11.05067 0,-6.048 1.12,-11.05067 1.12,-5.00266 3.36,-8.511996 2.31466,-3.584 5.74933,-5.525333 3.50933,-2.016 8.21333,-2.016 4.704,0 8.13867,2.016 3.50933,1.941333 5.74933,5.525333 2.31467,3.509336 3.36,8.511996 1.12,5.00267 1.12,11.05067 z m -7.168,0 q 0,-4.704 -0.59733,-8.58667 -0.59733,-3.88266 -1.94133,-6.64533 -1.344,-2.83733 -3.50934,-4.405333 -2.09066,-1.568 -5.152,-1.568 -3.06133,0 -5.22666,1.568 -2.09067,1.568003 -3.43467,4.405333 -1.344,2.76267 -2.016,6.64533 -0.59733,3.88267 -0.59733,8.58667 0,4.704 0.59733,8.58667 0.672,3.88266 2.016,6.64533 1.344,2.76267 3.43467,4.33067 2.16533,1.49333 5.22666,1.49333 3.06134,0 5.152,-1.49333 2.16534,-1.568 3.50934,-4.33067 1.344,-2.76267 1.94133,-6.64533 0.59733,-3.88267 0.59733,-8.58667 z"
         style="font-style:normal;font-variant:normal;font-weight:normal;font-stretch:normal;font-size:74.66666412px;font-family:'Ubuntu Condensed';-inkscape-font-specification:'Ubuntu Condensed, Normal';font-variant-ligatures:normal;font-variant-caps:normal;font-variant-numeric:normal;font-feature-settings:normal;text-align:start;writing-mode:lr-tb;text-anchor:start;fill:#ffffff"
         id="path948" />
      <path
         d="m 274.59975,139.04036 q 2.16534,1.19467 4.62934,1.19467 1.86666,0 3.28533,-0.74667 1.41867,-0.74667 2.38933,-2.464 1.04534,-1.71733 1.568,-4.55467 0.52267,-2.83733 0.52267,-7.01866 0,-8.064 -2.09067,-11.49867 -2.016,-3.50933 -6.496,-3.50933 -0.82133,0 -1.792,0.14933 -0.97066,0.0747 -2.016,0.37333 z m 0,19.712 h -6.42133 v -51.968 q 2.09067,-0.896 4.704,-1.41867 2.688,-0.59733 5.45067,-0.59733 4.10666,0 7.01866,1.41867 2.98667,1.41866 4.77867,4.10666 1.86667,2.61334 2.688,6.496 0.896,3.808 0.896,8.736 0,9.93067 -3.21067,15.15734 -3.136,5.22666 -10.304,5.22666 -1.71733,0 -3.06133,-0.37333 -1.344,-0.29867 -2.53867,-0.896 z"
         style="font-style:normal;font-variant:normal;font-weight:normal;font-stretch:normal;font-size:74.66666412px;font-family:'Ubuntu Condensed';-inkscape-font-specification:'Ubuntu Condensed, Normal';font-variant-ligatures:normal;font-variant-caps:normal;font-variant-numeric:normal;font-feature-settings:normal;text-align:start;writing-mode:lr-tb;text-anchor:start;fill:#ffffff"
         id="path950" />
      <path
         d="m 307.52768,127.24303 q 0.0747,2.83733 0.52267,5.22666 0.448,2.31467 1.41867,4.10667 1.04533,1.71733 2.688,2.688 1.71733,0.97067 4.33066,0.97067 2.16534,0 3.95734,-0.59734 1.86666,-0.672 2.688,-1.12 l 1.19466,5.152 q -0.97066,0.672 -3.28533,1.41867 -2.24,0.82133 -5.376,0.82133 -4.10667,0 -6.944,-1.49333 -2.76267,-1.49333 -4.55467,-4.18133 -1.71733,-2.688 -2.464,-6.42134 -0.74666,-3.73333 -0.74666,-8.21333 0,-10.82667 3.584,-15.82933 3.584,-5.00267 9.48266,-5.00267 6.64534,0 9.408,5.00267 2.76267,5.00266 2.76267,14.03733 0,0.82133 0,1.71733 0,0.82134 -0.0747,1.71734 z m 6.496,-17.024 q -3.21066,0 -4.704,3.21066 -1.41866,3.21067 -1.71733,8.58667 h 11.872 q 0,-5.45067 -1.12,-8.58667 -1.12,-3.21066 -4.33067,-3.21066 z"
         style="font-style:normal;font-variant:normal;font-weight:normal;font-stretch:normal;font-size:74.66666412px;font-family:'Ubuntu Condensed';-inkscape-font-specification:'Ubuntu Condensed, Normal';font-variant-ligatures:normal;font-variant-caps:normal;font-variant-numeric:normal;font-feature-settings:normal;text-align:start;writing-mode:lr-tb;text-anchor:start;fill:#ffffff"
         id="path952" />
      <path
         d="m 335.67693,106.85903 q 2.76267,-0.82134 5.97333,-1.344 3.21067,-0.59734 5.89867,-0.59734 2.912,0 5.30133,0.82134 2.38934,0.74666 4.032,2.61333 1.71734,1.86667 2.61334,5.07733 0.97066,3.136 0.97066,7.84 v 23.66934 h -6.42133 v -23.14667 q 0,-5.824 -1.49333,-8.512 -1.49334,-2.688 -5.6,-2.688 -2.16534,0 -4.85334,0.74667 v 33.6 h -6.42133 z"
         style="font-style:normal;font-variant:normal;font-weight:normal;font-stretch:normal;font-size:74.66666412px;font-family:'Ubuntu Condensed';-inkscape-font-specification:'Ubuntu Condensed, Normal';font-variant-ligatures:normal;font-variant-caps:normal;font-variant-numeric:normal;font-feature-settings:normal;text-align:start;writing-mode:lr-tb;text-anchor:start;fill:#ffffff"
         id="path954" />
      <path
         d="m 378.53549,140.30969 q 4.032,0 6.19734,-2.24 2.24,-2.24 2.24,-6.048 0,-2.016 -0.672,-3.584 -0.672,-1.568 -1.792,-2.83733 -1.04534,-1.26933 -2.464,-2.31467 -1.41867,-1.04533 -2.912,-2.09066 -1.71734,-1.19467 -3.584,-2.53867 -1.86667,-1.344 -3.43467,-3.136 -1.49333,-1.792 -2.464,-4.18133 -0.97067,-2.38934 -0.97067,-5.6 0,-3.136 1.04534,-5.67467 1.12,-2.538666 2.98666,-4.330666 1.94134,-1.792 4.55467,-2.762666 2.688,-0.970667 5.74933,-0.970667 2.98667,0 5.52534,0.746667 2.53866,0.746666 4.256,1.792 l -2.09067,5.301333 q -1.568,-1.045334 -3.43467,-1.568 -1.792,-0.597334 -3.808,-0.597334 -3.65866,0 -5.89866,2.016 -2.16534,1.941333 -2.16534,5.749333 0,2.09067 0.672,3.65867 0.74667,1.568 1.86667,2.83733 1.19467,1.26933 2.688,2.31467 1.568,1.04533 3.28533,2.16533 1.71734,1.12 3.50934,2.464 1.792,1.344 3.21066,3.136 1.49334,1.71733 2.38934,4.10667 0.97066,2.31466 0.97066,5.52533 0,2.912 -0.896,5.52533 -0.896,2.61334 -2.83733,4.62934 -1.86667,1.94133 -4.77867,3.136 -2.83733,1.12 -6.72,1.12 -3.584,0 -6.272,-0.82134 -2.688,-0.82133 -4.77866,-2.16533 l 2.09066,-5.376 q 1.94134,1.19467 3.95734,1.94133 2.09066,0.672 4.77866,0.672 z"
         style="font-style:normal;font-variant:normal;font-weight:normal;font-stretch:normal;font-size:74.66666412px;font-family:'Ubuntu Condensed';-inkscape-font-specification:'Ubuntu Condensed, Normal';font-variant-ligatures:normal;font-variant-caps:normal;font-variant-numeric:normal;font-feature-settings:normal;text-align:start;writing-mode:lr-tb;text-anchor:start;fill:#ffffff"
         id="path956" />
      <path
         d="m 428.18869,125.37636 q 0,4.62933 -0.82134,8.43733 -0.82133,3.73334 -2.53866,6.42134 -1.64267,2.688 -4.256,4.18133 -2.53867,1.49333 -6.048,1.49333 -3.50933,0 -6.12267,-1.49333 -2.61333,-1.49333 -4.33066,-4.18133 -1.64267,-2.688 -2.464,-6.42134 -0.82134,-3.808 -0.82134,-8.43733 0,-4.55467 0.82134,-8.36267 0.82133,-3.808 2.464,-6.496 1.71733,-2.76266 4.33066,-4.256 2.61334,-1.49333 6.12267,-1.49333 3.50933,0 6.048,1.49333 2.61333,1.49334 4.256,4.256 1.71733,2.688 2.53866,6.496 0.82134,3.808 0.82134,8.36267 z m -6.72,0 q 0,-3.28533 -0.37333,-5.97333 -0.37334,-2.76267 -1.19467,-4.704 -0.82133,-2.016 -2.16533,-3.06134 -1.344,-1.12 -3.21067,-1.12 -1.94133,0 -3.28533,1.12 -1.26934,1.04534 -2.16534,3.06134 -0.82133,1.94133 -1.19466,4.704 -0.37334,2.688 -0.37334,5.97333 0,3.28533 0.37334,6.048 0.37333,2.688 1.19466,4.62933 0.896,1.94134 2.16534,3.06134 1.344,1.04533 3.28533,1.04533 1.86667,0 3.21067,-1.04533 1.344,-1.12 2.16533,-3.06134 0.82133,-1.94133 1.19467,-4.62933 0.37333,-2.76267 0.37333,-6.048 z"
         style="font-style:normal;font-variant:normal;font-weight:normal;font-stretch:normal;font-size:74.66666412px;font-family:'Ubuntu Condensed';-inkscape-font-specification:'Ubuntu Condensed, Normal';font-variant-ligatures:normal;font-variant-caps:normal;font-variant-numeric:normal;font-feature-settings:normal;text-align:start;writing-mode:lr-tb;text-anchor:start;fill:#ffffff"
         id="path958" />
      <path
         d="m 461.86331,143.81903 q -0.97067,0.37333 -2.38934,0.74666 -1.344,0.29867 -2.912,0.52267 -1.49333,0.29867 -3.06133,0.448 -1.49333,0.224 -2.76267,0.224 -3.06133,0 -5.6,-0.74667 -2.53866,-0.672 -4.33066,-2.464 -1.792,-1.792 -2.76267,-4.85333 -0.97067,-3.136 -0.97067,-7.84 v -24.11733 h 6.42134 v 23.89333 q 0,5.74933 1.71733,8.13867 1.792,2.31466 5.376,2.31466 1.19467,0 2.38933,-0.0747 1.19467,-0.14934 2.464,-0.52267 v -33.74933 h 6.42134 z"
         style="font-style:normal;font-variant:normal;font-weight:normal;font-stretch:normal;font-size:74.66666412px;font-family:'Ubuntu Condensed';-inkscape-font-specification:'Ubuntu Condensed, Normal';font-variant-ligatures:normal;font-variant-caps:normal;font-variant-numeric:normal;font-feature-settings:normal;text-align:start;writing-mode:lr-tb;text-anchor:start;fill:#ffffff"
         id="path960" />
      <path
         d="m 490.38594,111.56303 q -2.38933,-1.04534 -5.376,-1.04534 -2.76267,0 -5.152,0.97067 v 33.45067 h -6.42133 v -37.48267 q 2.16533,-1.04533 4.928,-1.71733 2.83733,-0.74667 6.19733,-0.74667 1.792,0 3.584,0.224 1.792,0.224 3.36,0.82133 z"
         style="font-style:normal;font-variant:normal;font-weight:normal;font-stretch:normal;font-size:74.66666412px;font-family:'Ubuntu Condensed';-inkscape-font-specification:'Ubuntu Condensed, Normal';font-variant-ligatures:normal;font-variant-caps:normal;font-variant-numeric:normal;font-feature-settings:normal;text-align:start;writing-mode:lr-tb;text-anchor:start;fill:#ffffff"
         id="path962" />
      <path
         d="m 509.12717,145.90969 q -4.032,0 -6.72,-1.568 -2.688,-1.568 -4.40533,-4.256 -1.64267,-2.76266 -2.38934,-6.496 -0.672,-3.73333 -0.672,-8.13866 0,-9.70667 3.50934,-15.15734 3.584,-5.52533 10.752,-5.52533 2.16533,0 3.88266,0.52267 1.71734,0.52266 3.21067,1.344 l -1.64267,5.30133 q -2.31466,-1.49333 -5.152,-1.49333 -4.032,0 -5.97333,3.65866 -1.86667,3.65867 -1.86667,11.34934 0,3.21066 0.37334,5.97333 0.37333,2.688 1.26933,4.62933 0.97067,1.94134 2.464,3.06134 1.568,1.12 3.95733,1.12 1.64267,0 2.912,-0.37334 1.344,-0.448 2.53867,-1.12 l 1.41867,5.00267 q -1.19467,0.82133 -3.21067,1.49333 -1.94133,0.672 -4.256,0.672 z"
         style="font-style:normal;font-variant:normal;font-weight:normal;font-stretch:normal;font-size:74.66666412px;font-family:'Ubuntu Condensed';-inkscape-font-specification:'Ubuntu Condensed, Normal';font-variant-ligatures:normal;font-variant-caps:normal;font-variant-numeric:normal;font-feature-settings:normal;text-align:start;writing-mode:lr-tb;text-anchor:start;fill:#ffffff"
         id="path964" />
      <path
         d="m 527.56966,127.24303 q 0.0747,2.83733 0.52267,5.22666 0.448,2.31467 1.41866,4.10667 1.04534,1.71733 2.688,2.688 1.71734,0.97067 4.33067,0.97067 2.16533,0 3.95733,-0.59734 1.86667,-0.672 2.688,-1.12 l 1.19467,5.152 q -0.97067,0.672 -3.28533,1.41867 -2.24,0.82133 -5.376,0.82133 -4.10667,0 -6.944,-1.49333 -2.76267,-1.49333 -4.55467,-4.18133 -1.71733,-2.688 -2.464,-6.42134 -0.74667,-3.73333 -0.74667,-8.21333 0,-10.82667 3.584,-15.82933 3.584,-5.00267 9.48267,-5.00267 6.64533,0 9.408,5.00267 2.76267,5.00266 2.76267,14.03733 0,0.82133 0,1.71733 0,0.82134 -0.0747,1.71734 z m 6.496,-17.024 q -3.21067,0 -4.704,3.21066 -1.41867,3.21067 -1.71733,8.58667 h 11.872 q 0,-5.45067 -1.12,-8.58667 -1.12,-3.21066 -4.33067,-3.21066 z"
         style="font-style:normal;font-variant:normal;font-weight:normal;font-stretch:normal;font-size:74.66666412px;font-family:'Ubuntu Condensed';-inkscape-font-specification:'Ubuntu Condensed, Normal';font-variant-ligatures:normal;font-variant-caps:normal;font-variant-numeric:normal;font-feature-settings:normal;text-align:start;writing-mode:lr-tb;text-anchor:start;fill:#ffffff"
         id="path966" />
    </g>
    <g
       aria-label="l'informatique pour tous"
       transform="matrix(0.45575179,0,0,0.43655156,-1.708607,199.77717)"
       style="font-style:normal;font-weight:normal;font-size:40px;line-height:1.25;font-family:sans-serif;letter-spacing:0px;word-spacing:0px;fill:#000000;fill-opacity:1;stroke:none;filter:url(#filter6560-0)"
       id="text5960-2">
      <path
         d="m 55.332668,261.64648 q -4.44,-0.12 -6.36,-2.16 -1.92,-2.1 -1.92,-6.6 v -37.5 l 5.16,-0.9 v 38.52 q 0,2.1 0.84,3.06 0.84,0.9 2.94,1.26 z"
         style="font-style:normal;font-variant:normal;font-weight:normal;font-stretch:normal;font-size:60px;font-family:'Ubuntu Condensed';-inkscape-font-specification:'Ubuntu Condensed, Normal';font-variant-ligatures:normal;font-variant-caps:normal;font-variant-numeric:normal;font-feature-settings:normal;text-align:start;writing-mode:lr-tb;text-anchor:start;fill:#ffffff"
         id="path969" />
      <path
         d="m 66.192556,215.44648 v 3 q 0,2.94 -0.3,6.12 -0.3,3.18 -0.84,6.42 h -2.64 q -0.54,-3.24 -0.84,-6.36 -0.3,-3.18 -0.3,-6.24 v -2.94 z"
         style="font-style:normal;font-variant:normal;font-weight:normal;font-stretch:normal;font-size:60px;font-family:'Ubuntu Condensed';-inkscape-font-specification:'Ubuntu Condensed, Normal';font-variant-ligatures:normal;font-variant-caps:normal;font-variant-numeric:normal;font-feature-settings:normal;text-align:start;writing-mode:lr-tb;text-anchor:start;fill:#ffffff"
         id="path971" />
      <path
         d="m 80.232448,261.04648 h -5.16 v -31.5 h 5.16 z m -2.58,-37.08 q -1.38,0 -2.4,-0.9 -0.96,-0.96 -0.96,-2.52 0,-1.56 0.96,-2.46 1.02,-0.96 2.4,-0.96 1.38,0 2.34,0.96 1.02,0.9 1.02,2.46 0,1.56 -1.02,2.52 -0.96,0.9 -2.34,0.9 z"
         style="font-style:normal;font-variant:normal;font-weight:normal;font-stretch:normal;font-size:60px;font-family:'Ubuntu Condensed';-inkscape-font-specification:'Ubuntu Condensed, Normal';font-variant-ligatures:normal;font-variant-caps:normal;font-variant-numeric:normal;font-feature-settings:normal;text-align:start;writing-mode:lr-tb;text-anchor:start;fill:#ffffff"
         id="path973" />
      <path
         d="m 89.592369,230.44648 q 2.22,-0.66 4.8,-1.08 2.58,-0.48 4.74,-0.48 2.340001,0 4.260001,0.66 1.92,0.6 3.24,2.1 1.38,1.5 2.1,4.08 0.78,2.52 0.78,6.3 v 19.02 h -5.16 v -18.6 q 0,-4.68 -1.2,-6.84 -1.2,-2.16 -4.500001,-2.16 -1.74,0 -3.9,0.6 v 27 h -5.16 z"
         style="font-style:normal;font-variant:normal;font-weight:normal;font-stretch:normal;font-size:60px;font-family:'Ubuntu Condensed';-inkscape-font-specification:'Ubuntu Condensed, Normal';font-variant-ligatures:normal;font-variant-caps:normal;font-variant-numeric:normal;font-feature-settings:normal;text-align:start;writing-mode:lr-tb;text-anchor:start;fill:#ffffff"
         id="path975" />
      <path
         d="m 127.69228,214.48648 q 1.74,0 3.06,0.36 1.32,0.36 2.16,0.78 l -1.08,4.08 q -0.84,-0.42 -1.74,-0.6 -0.9,-0.24 -1.92,-0.24 -1.38,0 -2.28,0.48 -0.9,0.48 -1.38,1.32 -0.48,0.84 -0.66,2.04 -0.18,1.14 -0.18,2.46 v 4.38 h 8.1 v 4.44 h -8.1 v 27.06 h -5.16 v -35.88 q 0,-5.1 2.28,-7.86 2.28,-2.82 6.9,-2.82 z"
         style="font-style:normal;font-variant:normal;font-weight:normal;font-stretch:normal;font-size:60px;font-family:'Ubuntu Condensed';-inkscape-font-specification:'Ubuntu Condensed, Normal';font-variant-ligatures:normal;font-variant-caps:normal;font-variant-numeric:normal;font-feature-settings:normal;text-align:start;writing-mode:lr-tb;text-anchor:start;fill:#ffffff"
         id="path977" />
      <path
         d="m 156.49225,245.32648 q 0,3.72 -0.66,6.78 -0.66,3 -2.04,5.16 -1.32,2.16 -3.42,3.36 -2.04,1.2 -4.86,1.2 -2.82,0 -4.92,-1.2 -2.1,-1.2 -3.48,-3.36 -1.32,-2.16 -1.98,-5.16 -0.66,-3.06 -0.66,-6.78 0,-3.66 0.66,-6.72 0.66,-3.06 1.98,-5.22 1.38,-2.22 3.48,-3.42 2.1,-1.2 4.92,-1.2 2.82,0 4.86,1.2 2.1,1.2 3.42,3.42 1.38,2.16 2.04,5.22 0.66,3.06 0.66,6.72 z m -5.4,0 q 0,-2.64 -0.3,-4.8 -0.3,-2.22 -0.96,-3.78 -0.66,-1.62 -1.74,-2.46 -1.08,-0.9 -2.58,-0.9 -1.56,0 -2.64,0.9 -1.02,0.84 -1.74,2.46 -0.66,1.56 -0.96,3.78 -0.3,2.16 -0.3,4.8 0,2.64 0.3,4.86 0.3,2.16 0.96,3.72 0.72,1.56 1.74,2.46 1.08,0.84 2.64,0.84 1.5,0 2.58,-0.84 1.08,-0.9 1.74,-2.46 0.66,-1.56 0.96,-3.72 0.3,-2.22 0.3,-4.86 z"
         style="font-style:normal;font-variant:normal;font-weight:normal;font-stretch:normal;font-size:60px;font-family:'Ubuntu Condensed';-inkscape-font-specification:'Ubuntu Condensed, Normal';font-variant-ligatures:normal;font-variant-caps:normal;font-variant-numeric:normal;font-feature-settings:normal;text-align:start;writing-mode:lr-tb;text-anchor:start;fill:#ffffff"
         id="path979" />
      <path
         d="m 177.67221,234.22648 q -1.92,-0.84 -4.32,-0.84 -2.22,0 -4.14,0.78 v 26.88 h -5.16 v -30.12 q 1.74,-0.84 3.96,-1.38 2.28,-0.6 4.98,-0.6 1.44,0 2.88,0.18 1.44,0.18 2.7,0.66 z"
         style="font-style:normal;font-variant:normal;font-weight:normal;font-stretch:normal;font-size:60px;font-family:'Ubuntu Condensed';-inkscape-font-specification:'Ubuntu Condensed, Normal';font-variant-ligatures:normal;font-variant-caps:normal;font-variant-numeric:normal;font-feature-settings:normal;text-align:start;writing-mode:lr-tb;text-anchor:start;fill:#ffffff"
         id="path981" />
      <path
         d="m 183.73215,230.44648 q 2.1,-0.66 4.56,-1.08 2.46,-0.48 4.5,-0.48 2.1,0 3.78,0.54 1.74,0.54 3.06,1.8 1.56,-1.02 3.36,-1.68 1.8,-0.66 3.96,-0.66 2.16,0 3.9,0.66 1.8,0.6 3.06,2.1 1.26,1.5 1.98,4.08 0.72,2.52 0.72,6.3 v 19.02 h -5.16 v -18.6 q 0,-4.68 -1.08,-6.84 -1.08,-2.16 -4.08,-2.16 -1.14,0 -2.34,0.42 -1.14,0.42 -2.16,1.14 0.48,1.38 0.72,3.12 0.24,1.74 0.24,3.9 v 19.02 h -5.16 v -18.6 q 0,-4.68 -1.08,-6.84 -1.08,-2.16 -4.08,-2.16 -1.56,0 -3.54,0.6 v 27 h -5.16 z"
         style="font-style:normal;font-variant:normal;font-weight:normal;font-stretch:normal;font-size:60px;font-family:'Ubuntu Condensed';-inkscape-font-specification:'Ubuntu Condensed, Normal';font-variant-ligatures:normal;font-variant-caps:normal;font-variant-numeric:normal;font-feature-settings:normal;text-align:start;writing-mode:lr-tb;text-anchor:start;fill:#ffffff"
         id="path983" />
      <path
         d="m 226.09215,230.20648 q 1.56,-0.66 3.3,-1.02 1.74,-0.42 3.78,-0.42 4.2,0 6.84,2.64 2.64,2.58 2.64,8.1 v 20.88 q -2.16,0.6 -4.44,0.96 -2.22,0.36 -4.38,0.36 -2.16,0 -4.08,-0.54 -1.86,-0.54 -3.3,-1.74 -1.38,-1.2 -2.22,-3 -0.84,-1.86 -0.84,-4.5 0,-2.46 0.72,-4.26 0.78,-1.86 2.1,-3.06 1.32,-1.26 3.12,-1.86 1.8,-0.66 3.9,-0.66 1.98,0 4.38,0.48 v -2.88 q 0,-3.48 -1.38,-4.86 -1.32,-1.38 -3.84,-1.38 -1.38,0 -2.64,0.3 -1.2,0.24 -2.58,0.84 z m 2.46,21.66 q 0,2.76 1.44,4.08 1.44,1.32 4.08,1.32 1.62,0 3.54,-0.42 v -10.02 q -1.8,-0.48 -3.54,-0.48 -1.14,0 -2.16,0.3 -1.02,0.24 -1.8,0.9 -0.72,0.6 -1.14,1.68 -0.42,1.02 -0.42,2.64 z"
         style="font-style:normal;font-variant:normal;font-weight:normal;font-stretch:normal;font-size:60px;font-family:'Ubuntu Condensed';-inkscape-font-specification:'Ubuntu Condensed, Normal';font-variant-ligatures:normal;font-variant-caps:normal;font-variant-numeric:normal;font-feature-settings:normal;text-align:start;writing-mode:lr-tb;text-anchor:start;fill:#ffffff"
         id="path985" />
      <path
         d="m 256.45204,229.54648 h 7.92 v 4.44 h -7.92 v 17.34 q 0,3.24 1.14,4.56 1.2,1.26 3.18,1.26 1.02,0 1.92,-0.3 0.96,-0.3 1.62,-0.72 l 1.02,4.14 q -2.46,1.44 -5.22,1.44 -4.44,0 -6.66,-2.46 -2.16,-2.52 -2.16,-8.28 v -29.88 l 5.16,-0.9 z"
         style="font-style:normal;font-variant:normal;font-weight:normal;font-stretch:normal;font-size:60px;font-family:'Ubuntu Condensed';-inkscape-font-specification:'Ubuntu Condensed, Normal';font-variant-ligatures:normal;font-variant-caps:normal;font-variant-numeric:normal;font-feature-settings:normal;text-align:start;writing-mode:lr-tb;text-anchor:start;fill:#ffffff"
         id="path987" />
      <path
         d="m 276.07199,261.04648 h -5.16 v -31.5 h 5.16 z m -2.58,-37.08 q -1.38,0 -2.4,-0.9 -0.96,-0.96 -0.96,-2.52 0,-1.56 0.96,-2.46 1.02,-0.96 2.4,-0.96 1.38,0 2.34,0.96 1.02,0.9 1.02,2.46 0,1.56 -1.02,2.52 -0.96,0.9 -2.34,0.9 z"
         style="font-style:normal;font-variant:normal;font-weight:normal;font-stretch:normal;font-size:60px;font-family:'Ubuntu Condensed';-inkscape-font-specification:'Ubuntu Condensed, Normal';font-variant-ligatures:normal;font-variant-caps:normal;font-variant-numeric:normal;font-feature-settings:normal;text-align:start;writing-mode:lr-tb;text-anchor:start;fill:#ffffff"
         id="path989" />
      <path
         d="m 298.99191,233.74648 q -0.84,-0.24 -1.62,-0.3 -0.78,-0.12 -1.44,-0.12 -3.6,0 -5.28,2.82 -1.62,2.76 -1.62,9.24 0,3.36 0.42,5.64 0.42,2.28 1.2,3.66 0.84,1.38 1.98,1.98 1.14,0.6 2.64,0.6 1.98,0 3.72,-0.96 z m 0,27.06 q -0.96,0.48 -2.04,0.72 -1.08,0.3 -2.46,0.3 -5.76,0 -8.34,-4.2 -2.52,-4.2 -2.52,-12.18 0,-3.96 0.66,-7.02 0.72,-3.12 2.16,-5.22 1.5,-2.16 3.84,-3.3 2.34,-1.14 5.7,-1.14 2.22,0 4.32,0.48 2.16,0.42 3.84,1.14 v 41.76 h -5.16 z"
         style="font-style:normal;font-variant:normal;font-weight:normal;font-stretch:normal;font-size:60px;font-family:'Ubuntu Condensed';-inkscape-font-specification:'Ubuntu Condensed, Normal';font-variant-ligatures:normal;font-variant-caps:normal;font-variant-numeric:normal;font-feature-settings:normal;text-align:start;writing-mode:lr-tb;text-anchor:start;fill:#ffffff"
         id="path991" />
      <path
         d="m 332.95184,260.14648 q -0.78,0.3 -1.92,0.6 -1.08,0.24 -2.34,0.42 -1.2,0.24 -2.46,0.36 -1.2,0.18 -2.22,0.18 -2.46,0 -4.5,-0.6 -2.04,-0.54 -3.48,-1.98 -1.44,-1.44 -2.22,-3.9 -0.78,-2.52 -0.78,-6.3 v -19.38 h 5.16 v 19.2 q 0,4.62 1.38,6.54 1.44,1.86 4.32,1.86 0.96,0 1.92,-0.06 0.96,-0.12 1.98,-0.42 v -27.12 h 5.16 z"
         style="font-style:normal;font-variant:normal;font-weight:normal;font-stretch:normal;font-size:60px;font-family:'Ubuntu Condensed';-inkscape-font-specification:'Ubuntu Condensed, Normal';font-variant-ligatures:normal;font-variant-caps:normal;font-variant-numeric:normal;font-feature-settings:normal;text-align:start;writing-mode:lr-tb;text-anchor:start;fill:#ffffff"
         id="path993" />
      <path
         d="m 345.79183,246.82648 q 0.06,2.28 0.42,4.2 0.36,1.86 1.14,3.3 0.84,1.38 2.16,2.16 1.38,0.78 3.48,0.78 1.74,0 3.18,-0.48 1.5,-0.54 2.16,-0.9 l 0.96,4.14 q -0.78,0.54 -2.64,1.14 -1.8,0.66 -4.32,0.66 -3.3,0 -5.58,-1.2 -2.22,-1.2 -3.66,-3.36 -1.38,-2.16 -1.98,-5.16 -0.6,-3 -0.6,-6.6 0,-8.7 2.88,-12.72 2.88,-4.02 7.62,-4.02 5.34,0 7.56,4.02 2.22,4.02 2.22,11.28 0,0.66 0,1.38 0,0.66 -0.06,1.38 z m 5.22,-13.68 q -2.58,0 -3.78,2.58 -1.14,2.58 -1.38,6.9 h 9.54 q 0,-4.38 -0.9,-6.9 -0.9,-2.58 -3.48,-2.58 z"
         style="font-style:normal;font-variant:normal;font-weight:normal;font-stretch:normal;font-size:60px;font-family:'Ubuntu Condensed';-inkscape-font-specification:'Ubuntu Condensed, Normal';font-variant-ligatures:normal;font-variant-caps:normal;font-variant-numeric:normal;font-feature-settings:normal;text-align:start;writing-mode:lr-tb;text-anchor:start;fill:#ffffff"
         id="path995" />
      <path
         d="m 385.21176,256.30648 q 1.74,0.96 3.72,0.96 1.5,0 2.64,-0.6 1.14,-0.6 1.92,-1.98 0.84,-1.38 1.26,-3.66 0.42,-2.28 0.42,-5.64 0,-6.48 -1.68,-9.24 -1.62,-2.82 -5.22,-2.82 -0.66,0 -1.44,0.12 -0.78,0.06 -1.62,0.3 z m 0,15.84 h -5.16 v -41.76 q 1.68,-0.72 3.78,-1.14 2.16,-0.48 4.38,-0.48 3.3,0 5.64,1.14 2.4,1.14 3.84,3.3 1.5,2.1 2.16,5.22 0.72,3.06 0.72,7.02 0,7.98 -2.58,12.18 -2.52,4.2 -8.28,4.2 -1.38,0 -2.46,-0.3 -1.08,-0.24 -2.04,-0.72 z"
         style="font-style:normal;font-variant:normal;font-weight:normal;font-stretch:normal;font-size:60px;font-family:'Ubuntu Condensed';-inkscape-font-specification:'Ubuntu Condensed, Normal';font-variant-ligatures:normal;font-variant-caps:normal;font-variant-numeric:normal;font-feature-settings:normal;text-align:start;writing-mode:lr-tb;text-anchor:start;fill:#ffffff"
         id="path997" />
      <path
         d="m 428.35168,245.32648 q 0,3.72 -0.66,6.78 -0.66,3 -2.04,5.16 -1.32,2.16 -3.42,3.36 -2.04,1.2 -4.86,1.2 -2.82,0 -4.92,-1.2 -2.1,-1.2 -3.48,-3.36 -1.32,-2.16 -1.98,-5.16 -0.66,-3.06 -0.66,-6.78 0,-3.66 0.66,-6.72 0.66,-3.06 1.98,-5.22 1.38,-2.22 3.48,-3.42 2.1,-1.2 4.92,-1.2 2.82,0 4.86,1.2 2.1,1.2 3.42,3.42 1.38,2.16 2.04,5.22 0.66,3.06 0.66,6.72 z m -5.4,0 q 0,-2.64 -0.3,-4.8 -0.3,-2.22 -0.96,-3.78 -0.66,-1.62 -1.74,-2.46 -1.08,-0.9 -2.58,-0.9 -1.56,0 -2.64,0.9 -1.02,0.84 -1.74,2.46 -0.66,1.56 -0.96,3.78 -0.3,2.16 -0.3,4.8 0,2.64 0.3,4.86 0.3,2.16 0.96,3.72 0.72,1.56 1.74,2.46 1.08,0.84 2.64,0.84 1.5,0 2.58,-0.84 1.08,-0.9 1.74,-2.46 0.66,-1.56 0.96,-3.72 0.3,-2.22 0.3,-4.86 z"
         style="font-style:normal;font-variant:normal;font-weight:normal;font-stretch:normal;font-size:60px;font-family:'Ubuntu Condensed';-inkscape-font-specification:'Ubuntu Condensed, Normal';font-variant-ligatures:normal;font-variant-caps:normal;font-variant-numeric:normal;font-feature-settings:normal;text-align:start;writing-mode:lr-tb;text-anchor:start;fill:#ffffff"
         id="path999" />
      <path
         d="m 455.41165,260.14648 q -0.78,0.3 -1.92,0.6 -1.08,0.24 -2.34,0.42 -1.2,0.24 -2.46,0.36 -1.2,0.18 -2.22,0.18 -2.46,0 -4.5,-0.6 -2.04,-0.54 -3.48,-1.98 -1.44,-1.44 -2.22,-3.9 -0.78,-2.52 -0.78,-6.3 v -19.38 h 5.16 v 19.2 q 0,4.62 1.38,6.54 1.44,1.86 4.32,1.86 0.96,0 1.92,-0.06 0.96,-0.12 1.98,-0.42 v -27.12 h 5.16 z"
         style="font-style:normal;font-variant:normal;font-weight:normal;font-stretch:normal;font-size:60px;font-family:'Ubuntu Condensed';-inkscape-font-specification:'Ubuntu Condensed, Normal';font-variant-ligatures:normal;font-variant-caps:normal;font-variant-numeric:normal;font-feature-settings:normal;text-align:start;writing-mode:lr-tb;text-anchor:start;fill:#ffffff"
         id="path1001" />
      <path
         d="m 478.33161,234.22648 q -1.92,-0.84 -4.32,-0.84 -2.22,0 -4.14,0.78 v 26.88 h -5.16 v -30.12 q 1.74,-0.84 3.96,-1.38 2.28,-0.6 4.98,-0.6 1.44,0 2.88,0.18 1.44,0.18 2.7,0.66 z"
         style="font-style:normal;font-variant:normal;font-weight:normal;font-stretch:normal;font-size:60px;font-family:'Ubuntu Condensed';-inkscape-font-specification:'Ubuntu Condensed, Normal';font-variant-ligatures:normal;font-variant-caps:normal;font-variant-numeric:normal;font-feature-settings:normal;text-align:start;writing-mode:lr-tb;text-anchor:start;fill:#ffffff"
         id="path1003" />
      <path
         d="m 500.89155,229.54648 h 7.92 v 4.44 h -7.92 v 17.34 q 0,3.24 1.14,4.56 1.2,1.26 3.18,1.26 1.02,0 1.92,-0.3 0.96,-0.3 1.62,-0.72 l 1.02,4.14 q -2.46,1.44 -5.22,1.44 -4.44,0 -6.66,-2.46 -2.16,-2.52 -2.16,-8.28 v -29.88 l 5.16,-0.9 z"
         style="font-style:normal;font-variant:normal;font-weight:normal;font-stretch:normal;font-size:60px;font-family:'Ubuntu Condensed';-inkscape-font-specification:'Ubuntu Condensed, Normal';font-variant-ligatures:normal;font-variant-caps:normal;font-variant-numeric:normal;font-feature-settings:normal;text-align:start;writing-mode:lr-tb;text-anchor:start;fill:#ffffff"
         id="path1005" />
      <path
         d="m 535.27142,245.32648 q 0,3.72 -0.66,6.78 -0.66,3 -2.04,5.16 -1.32,2.16 -3.42,3.36 -2.04,1.2 -4.86,1.2 -2.82,0 -4.92,-1.2 -2.1,-1.2 -3.48,-3.36 -1.32,-2.16 -1.98,-5.16 -0.66,-3.06 -0.66,-6.78 0,-3.66 0.66,-6.72 0.66,-3.06 1.98,-5.22 1.38,-2.22 3.48,-3.42 2.1,-1.2 4.92,-1.2 2.82,0 4.86,1.2 2.1,1.2 3.42,3.42 1.38,2.16 2.04,5.22 0.66,3.06 0.66,6.72 z m -5.4,0 q 0,-2.64 -0.3,-4.8 -0.3,-2.22 -0.96,-3.78 -0.66,-1.62 -1.74,-2.46 -1.08,-0.9 -2.58,-0.9 -1.56,0 -2.64,0.9 -1.02,0.84 -1.74,2.46 -0.66,1.56 -0.96,3.78 -0.3,2.16 -0.3,4.8 0,2.64 0.3,4.86 0.3,2.16 0.96,3.72 0.72,1.56 1.74,2.46 1.08,0.84 2.64,0.84 1.5,0 2.58,-0.84 1.08,-0.9 1.74,-2.46 0.66,-1.56 0.96,-3.72 0.3,-2.22 0.3,-4.86 z"
         style="font-style:normal;font-variant:normal;font-weight:normal;font-stretch:normal;font-size:60px;font-family:'Ubuntu Condensed';-inkscape-font-specification:'Ubuntu Condensed, Normal';font-variant-ligatures:normal;font-variant-caps:normal;font-variant-numeric:normal;font-feature-settings:normal;text-align:start;writing-mode:lr-tb;text-anchor:start;fill:#ffffff"
         id="path1007" />
      <path
         d="m 562.33139,260.14648 q -0.78,0.3 -1.92,0.6 -1.08,0.24 -2.34,0.42 -1.2,0.24 -2.46,0.36 -1.2,0.18 -2.22,0.18 -2.46,0 -4.5,-0.6 -2.04,-0.54 -3.48,-1.98 -1.44,-1.44 -2.22,-3.9 -0.78,-2.52 -0.78,-6.3 v -19.38 h 5.16 v 19.2 q 0,4.62 1.38,6.54 1.44,1.86 4.32,1.86 0.96,0 1.92,-0.06 0.96,-0.12 1.98,-0.42 v -27.12 h 5.16 z"
         style="font-style:normal;font-variant:normal;font-weight:normal;font-stretch:normal;font-size:60px;font-family:'Ubuntu Condensed';-inkscape-font-specification:'Ubuntu Condensed, Normal';font-variant-ligatures:normal;font-variant-caps:normal;font-variant-numeric:normal;font-feature-settings:normal;text-align:start;writing-mode:lr-tb;text-anchor:start;fill:#ffffff"
         id="path1009" />
      <path
         d="m 576.01135,257.38648 q 2.28,0 3.42,-1.26 1.2,-1.32 1.2,-3.42 0,-1.32 -0.48,-2.22 -0.48,-0.96 -1.26,-1.68 -0.78,-0.72 -1.8,-1.26 -1.02,-0.6 -2.04,-1.26 -1.02,-0.6 -1.98,-1.38 -0.96,-0.84 -1.74,-1.86 -0.72,-1.08 -1.2,-2.4 -0.42,-1.38 -0.42,-3.18 0,-3.9 2.4,-6.3 2.46,-2.4 6.6,-2.4 1.74,0 3.3,0.48 1.56,0.42 2.58,0.96 l -1.14,4.14 q -1.08,-0.6 -2.16,-0.9 -1.08,-0.3 -2.34,-0.3 -1.92,0 -3.06,1.14 -1.14,1.08 -1.14,3.18 0,1.2 0.42,2.1 0.42,0.84 1.08,1.56 0.72,0.66 1.56,1.26 0.9,0.6 1.86,1.14 1.14,0.66 2.22,1.44 1.14,0.78 1.98,1.86 0.9,1.02 1.44,2.46 0.54,1.38 0.54,3.36 0,4.14 -2.46,6.66 -2.4,2.52 -7.08,2.52 -2.4,0 -4.32,-0.66 -1.92,-0.66 -2.88,-1.2 l 1.08,-4.26 q 0.9,0.48 2.4,1.08 1.56,0.6 3.42,0.6 z"
         style="font-style:normal;font-variant:normal;font-weight:normal;font-stretch:normal;font-size:60px;font-family:'Ubuntu Condensed';-inkscape-font-specification:'Ubuntu Condensed, Normal';font-variant-ligatures:normal;font-variant-caps:normal;font-variant-numeric:normal;font-feature-settings:normal;text-align:start;writing-mode:lr-tb;text-anchor:start;fill:#ffffff"
         id="path1011" />
    </g>
  </g>
</svg>
